<?xml version="1.0" encoding="UTF-8" standalone="no"?>
<!-- Generator: Adobe Illustrator 19.0.0, SVG Export Plug-In . SVG Version: 6.00 Build 0)  -->

<svg
  
   version="1.1"
   id="Layer_1"
   x="0px"
   y="0px"
   viewBox="0 0 512 512"
   style="enable-background:new 0 0 512 512;"
 
   ><metadata
   id="metadata43"><rdf:RDF><cc:Work
       ><dc:format>image/svg+xml</dc:format><dc:type
          /></cc:Work></rdf:RDF></metadata><defs
   id="defs41" /><sodipodi:namedview
   pagecolor="#ffffff"
   bordercolor="#666666"
   borderopacity="1"
   objecttolerance="10"
   gridtolerance="10"
   guidetolerance="10"
   id="namedview39"
   showgrid="false"
   />
<g
   id="g6"
   transform="matrix(-1,0,0,1,512.00038,0)">
	<g
   id="g4">
		<path
   d="m 508.875,248.458 -160,-160 c -4.167,-4.167 -10.917,-4.167 -15.083,0 -4.167,4.167 -4.167,10.917 0,15.083 L 475.584,245.333 H 10.667 C 4.771,245.333 0,250.104 0,256 c 0,5.896 4.771,10.667 10.667,10.667 H 475.584 L 333.792,408.458 c -4.167,4.167 -4.167,10.917 0,15.083 2.083,2.083 4.813,3.125 7.542,3.125 2.729,0 5.458,-1.042 7.542,-3.125 l 160,-160 c 4.166,-4.166 4.166,-10.916 -10e-4,-15.083 z"
   id="path2"
   style="fill:#002049;fill-opacity:1" />
	</g>
</g>
<g
   id="g8">
</g>
<g
   id="g10">
</g>
<g
   id="g12">
</g>
<g
   id="g14">
</g>
<g
   id="g16">
</g>
<g
   id="g18">
</g>
<g
   id="g20">
</g>
<g
   id="g22">
</g>
<g
   id="g24">
</g>
<g
   id="g26">
</g>
<g
   id="g28">
</g>
<g
   id="g30">
</g>
<g
   id="g32">
</g>
<g
   id="g34">
</g>
<g
   id="g36">
</g>
</svg>