<?xml version="1.0" encoding="iso-8859-1"?>
<!-- Generator: Adobe Illustrator 19.0.0, SVG Export Plug-In . SVG Version: 6.00 Build 0)  -->
<svg version="1.1" id="Capa_1" xmlns="http://www.w3.org/2000/svg" xmlns:xlink="http://www.w3.org/1999/xlink" x="0px" y="0px"
	 viewBox="0 0 512 512" style="enable-background:new 0 0 512 512;" xml:space="preserve">
<g>
	<g>
		<path d="M498.84,76.799c17.545-17.545,17.546-46.094,0-63.64c-17.545-17.545-46.094-17.545-63.64,0
			c-5.075,5.075-8.672,11.072-10.811,17.455C361.038-7.237,277.576,1.082,223.07,55.587l-95.057,95.057
			c-15.265,15.265-35.183,24.172-56.554,25.434c-17.587-12.814-42.438-11.295-58.299,4.566c-17.545,17.545-17.545,46.094,0,63.64
			l75.313,75.313c-19.25,29.105-16.071,68.781,9.539,94.392c25.611,25.611,65.288,28.789,94.392,9.539l75.313,75.313
			c17.546,17.546,46.094,17.545,63.64,0c15.861-15.861,17.38-40.711,4.566-58.299c1.262-21.371,10.17-41.29,25.434-56.554
			l95.057-95.057c54.506-54.506,62.824-137.967,24.971-201.321C487.768,85.471,493.765,81.874,498.84,76.799z M119.226,392.777
			c-13.827-13.827-16.678-34.556-8.711-51.279l59.991,59.991C153.782,409.455,133.054,406.604,119.226,392.777z M310.144,477.629
			c-5.848,5.848-15.363,5.849-21.212,0.001L34.373,223.071c-5.848-5.848-5.848-15.365,0-21.213c5.848-5.848,15.365-5.848,21.213,0
			l254.558,254.558C315.993,462.265,315.992,471.781,310.144,477.629z M310.102,413.947L98.056,201.901
			c10.387-2.91,20.297-7.259,29.503-12.923l195.466,195.466C317.361,393.65,313.012,403.561,310.102,413.947z M435.202,267.72
			l-93.237,93.237L151.046,170.038l93.237-93.237c52.637-52.637,138.283-52.637,190.919,0
			C487.839,129.438,487.839,215.083,435.202,267.72z M456.415,55.587c-5.848-5.848-5.848-15.364,0-21.213
			c5.848-5.848,15.365-5.848,21.213,0c5.848,5.848,5.848,15.365,0,21.213C471.78,61.435,462.263,61.435,456.415,55.587z"/>
	</g>
</g>
<g>
</g>
<g>
</g>
<g>
</g>
<g>
</g>
<g>
</g>
<g>
</g>
<g>
</g>
<g>
</g>
<g>
</g>
<g>
</g>
<g>
</g>
<g>
</g>
<g>
</g>
<g>
</g>
<g>
</g>
</svg>
