<?xml version="1.0" encoding="UTF-8" standalone="no"?>
<svg
   data-name="Layer 1"
   width="809.34186"
   height="600"
   viewBox="0 0 809.34183 600"
   version="1.1"
   id="svg138"
  
   >
  <defs
     id="defs142" />
  <sodipodi:namedview
     id="namedview140"
     pagecolor="#ffffff"
     bordercolor="#666666"
     borderopacity="1.0"
   
     showgrid="false"
    />
  <path
     d="m 168.01903,332.30988 c -36.59171,-36.02189 -52.04631,-73.60177 -43.51812,-105.81608 10.94436,-41.34026 59.56474,-69.92355 133.39432,-78.42081 l 0.27268,2.37135 c -72.8018,8.37841 -120.68047,36.32021 -131.35973,76.66007 -8.29975,31.35084 6.93053,68.10978 42.88542,103.50533 z"
     fill="#f0f0f0"
     id="path2" />
  <path
     d="m 521.06737,460.17667 c -45.66871,0 -95.2959,-6.78662 -144.58981,-19.83666 -60.95842,-16.138 -116.85076,-40.49659 -161.63444,-70.44326 l 1.3261,-1.98332 c 44.56809,29.8016 100.21281,54.04886 160.919,70.11932 54.85932,14.52412 110.13,21.25364 159.81659,19.47775 l 0.0862,2.38417 q -7.87097,0.28313 -15.92367,0.282 z"
     fill="#f0f0f0"
     id="path4" />
  <path
     d="m 625.83703,445.16896 -0.76443,-2.26066 c 40.84443,-13.8098 66.391,-36.05568 73.87795,-64.33483 9.51688,-35.94965 -11.15878,-77.66687 -58.21884,-117.4672 C 593.4316,221.1038 525.22391,187.9118 448.6705,167.6457 l 0.61061,-2.30727 c 76.88788,20.35521 145.42765,53.71909 192.99111,93.94591 47.80351,40.42842 68.75185,83.00971 58.98559,119.89973 -7.70137,29.0902 -33.78163,51.90707 -75.42078,65.98489 z"
     fill="#f0f0f0"
     id="path6" />
  <path
     d="M 250.78985,461.17415 C 161.05354,421.37499 91.90491,369.7406 56.08291,315.78147 l 1.988,-1.32027 c 35.57435,53.58566 104.36,104.91416 193.68613,144.53154 z"
     fill="#f0f0f0"
     id="path8" />
  <path
     d="m 566.2956,530.12294 q -13.8838,0 -28.24187,-0.61993 l 0.10255,-2.38418 c 71.43317,3.09267 134.46,-5.45587 182.27864,-24.72619 l 0.8926,2.214 c -41.71372,16.80816 -94.88105,25.5163 -155.03192,25.5163 z"
     fill="#f0f0f0"
     id="path10" />
  <path
     d="m 514.22947,150.21303 c -14.83176,-4.829 -30.08768,-9.3252 -45.34359,-13.36408 -87.792,-23.24162 -174.09251,-31.49359 -249.575,-23.85923 l -0.24,-2.37485 c 75.764,-7.65942 162.35983,0.61236 250.42571,23.92681 15.299,4.05053 30.59806,8.55961 45.47177,13.40253 z"
     fill="#f0f0f0"
     id="path12" />
  <path
     d="M 111.93617,335.88964 C 75.34445,299.86774 59.88985,262.28787 68.41799,230.07354 79.36236,188.73329 127.98273,160.15 201.81232,151.65274 l 0.27267,2.37135 c -72.8018,8.37841 -120.68047,36.32021 -131.35973,76.66006 -8.29975,31.35085 6.93054,68.10978 42.88542,103.50533 z"
     fill="#f0f0f0"
     id="path14" />
  <path
     d="m 464.9845,463.75643 c -45.66871,0 -95.29589,-6.78663 -144.58981,-19.83666 -60.95842,-16.138 -116.85076,-40.49659 -161.63443,-70.44326 l 1.32609,-1.98332 c 44.5681,29.8016 100.21282,54.04886 160.919,70.11931 54.85932,14.52412 110.13,21.25365 159.8166,19.47775 l 0.0862,2.38418 q -7.87097,0.28316 -15.92368,0.282 z"
     fill="#f0f0f0"
     id="path16" />
  <path
     d="m 569.75416,448.74871 -0.76442,-2.26065 c 40.84442,-13.8098 66.391,-36.05569 73.87794,-64.33484 9.51689,-35.94964 -11.15878,-77.66687 -58.21884,-117.4672 -47.3001,-40.0025 -115.50777,-73.1945 -192.06121,-93.46056 l 0.61061,-2.30727 c 76.88788,20.35521 145.42767,53.71908 192.99111,93.94591 47.80356,40.42842 68.75185,83.0097 58.98556,119.8997 -7.70134,29.09022 -33.7816,51.9071 -75.42075,65.98491 z"
     fill="#f0f0f0"
     id="path18" />
  <path
     d="M 194.70699,464.75391 C 104.97067,424.95475 35.82199,373.32036 -1e-5,319.36122 l 1.988,-1.32026 C 37.56242,371.62662 106.34806,422.95512 195.6742,462.5725 Z"
     fill="#f0f0f0"
     id="path20" />
  <path
     d="m 510.21273,533.7027 q -13.88379,0 -28.24186,-0.61994 l 0.10254,-2.38417 c 71.43318,3.09267 134.46,-5.45587 182.27864,-24.7262 l 0.89261,2.21405 c -41.71375,16.80808 -94.88105,25.51626 -155.03193,25.51626 z"
     fill="#f0f0f0"
     id="path22" />
  <path
     d="m 458.1466,153.7928 c -14.83175,-4.82894 -30.08767,-9.32519 -45.34359,-13.36407 -87.792,-23.24163 -174.09251,-31.4936 -249.57505,-23.85923 l -0.24,-2.37485 c 75.764,-7.65942 162.35983,0.61236 250.42571,23.92681 15.299,4.05053 30.59807,8.55961 45.47177,13.40253 z"
     fill="#f0f0f0"
     id="path24" />
  <path
     d="m 40.67673,271.96872 c 17.14976,-19.22826 44.50649,-30.9473 69.29785,-23.93208 a 118.70968,118.70968 0 0 0 -46.32362,67.05768 c -2.67852,10.46848 -4.56766,22.39086 -13.2738,28.79149 -5.41709,3.98274 -12.59491,4.93415 -19.25684,4.02714 -6.66224,-0.90723 -12.96156,-3.498 -19.17587,-6.06531 l -1.6722,0.14488 c 4.80773,-25.31255 13.25472,-50.79554 30.40448,-70.0238 z"
     fill="#f2f2f2"
     id="path26" />
  <path
     d="m 109.89885,248.57194 a 101.46482,101.46482 0 0 0 -53.2125,32.64337 43.694,43.694 0 0 0 -7.36793,11.53847 25.06052,25.06052 0 0 0 -1.47925,13.10607 c 0.55678,4.13632 1.60531,8.30284 1.14692,12.50247 a 15.34469,15.34469 0 0 1 -6.50386,10.73231 c -4.35348,3.179 -9.58959,4.60415 -14.7585,5.81987 -5.7391,1.34983 -11.7216,2.66095 -16.39988,6.475 -0.56684,0.46212 -1.25076,-0.44444 -0.68477,-0.90587 8.1394,-6.63578 19.45136,-5.7838 28.45684,-10.60368 4.20212,-2.24905 7.75192,-5.77808 8.615,-10.6206 0.75471,-4.23457 -0.32287,-8.53205 -0.92282,-12.71529 a 26.74161,26.74161 0 0 1 0.96892,-12.86881 40.3945,40.3945 0 0 1 6.89713,-11.77917 98.43912,98.43912 0 0 1 22.91947,-20.52511 103.26408,103.26408 0 0 1 32.19117,-13.92683 c 0.70851,-0.17132 0.838,0.95761 0.13408,1.12781 z"
     fill="#ffffff"
     id="path28" />
  <path
     d="m 60.84411,275.73523 a 15.223,15.223 0 0 1 -0.469,-19.70657 c 0.46161,-0.56633 1.36335,0.12438 0.90112,0.69147 a 14.09612,14.09612 0 0 0 0.47371,18.33032 c 0.48879,0.54315 -0.41987,1.22481 -0.90586,0.68478 z"
     fill="#ffffff"
     id="path30" />
  <path
     d="m 47.28063,303.7998 a 29.341,29.341 0 0 0 20.38536,-6.45483 c 0.56846,-0.4601 1.25255,0.44632 0.68478,0.90586 a 30.51908,30.51908 0 0 1 -21.22647,6.67372 c -0.73038,-0.0506 -0.57008,-1.17511 0.15633,-1.12475 z"
     fill="#ffffff"
     id="path32" />
  <path
     d="m 87.6866,256.41087 a 8.61692,8.61692 0 0 0 6.954,4.30074 c 0.73066,0.0413 0.56957,1.16582 -0.15633,1.12475 a 9.656,9.656 0 0 1 -7.70353,-4.74072 0.58687,0.58687 0 0 1 0.11055,-0.79532 0.57066,0.57066 0 0 1 0.79532,0.11055 z"
     fill="#ffffff"
     id="path34" />
  <path
     d="m 145.16636,327.8586 c -0.457,-0.0128 -0.91394,-0.0257 -1.37675,-0.0309 a 113.48,113.48 0 0 0 -18.37688,1.07221 c -0.47163,0.0586 -0.9487,0.12507 -1.41766,0.19708 a 119.63375,119.63375 0 0 0 -41.593,14.49229 116.1798,116.1798 0 0 0 -14.59508,9.929 c -6.361,5.07568 -12.8542,11.08514 -20.30131,13.68643 a 19.92976,19.92976 0 0 1 -2.367,0.69439 l -34.56,-23.87781 c -0.0513,-0.0937 -0.10842,-0.17978 -0.16012,-0.27373 L 8.9951,342.85729 c 0.22432,-0.20613 0.46141,-0.4151 0.68573,-0.62122 0.12963,-0.12012 0.267,-0.23491 0.39658,-0.355 0.0889,-0.0784 0.17814,-0.15656 0.25384,-0.23238 0.0295,-0.0262 0.0593,-0.0521 0.0834,-0.0705 0.0757,-0.0758 0.15407,-0.13821 0.22432,-0.20613 q 1.98306,-1.7576 3.99773,-3.49341 c 0.005,-0.008 0.005,-0.008 0.0186,-0.0105 10.25634,-8.7913 21.33673,-16.80359 33.281,-22.87937 0.35942,-0.18268 0.72391,-0.37352 1.09912,-0.54529 a 110.86072,110.86072 0 0 1 16.77837,-6.7664 98.008,98.008 0 0 1 9.61356,-2.4324 81.49862,81.49862 0 0 1 25.46291,-0.97585 c 16.91705,2.01955 32.99991,9.427 43.48488,22.57717 0.26798,0.33657 0.52868,0.66806 0.79121,1.01254 z"
     fill="#f2f2f2"
     id="path36" />
  <path
     d="m 144.78561,328.24356 a 101.4649,101.4649 0 0 0 -62.14077,-5.9737 43.69454,43.69454 0 0 0 -12.82983,4.77682 25.06061,25.06061 0 0 0 -9.07186,9.57386 c -2.04579,3.63784 -3.71713,7.59586 -6.6116,10.673 a 15.34465,15.34465 0 0 1 -11.65456,4.65337 c -5.39,-0.0828 -10.42876,-2.09744 -15.2878,-4.2388 -5.395,-2.37757 -10.96111,-4.93259 -16.99277,-4.70394 -0.73082,0.0277 -0.73108,-1.1079 -10e-4,-1.13556 10.49405,-0.39782 19.01307,7.093 29.10534,8.66653 4.70924,0.73423 9.66828,0.0537 13.27292,-3.29314 3.15209,-2.92668 4.87909,-7.00675 6.91866,-10.708 a 26.74157,26.74157 0 0 1 8.52154,-9.69167 40.39458,40.39458 0 0 1 12.59885,-5.25246 98.439,98.439 0 0 1 30.65744,-2.589 103.264,103.264 0 0 1 34.08777,8.26152 c 0.66884,0.28978 0.0925,1.2691 -0.572,0.98121 z"
     fill="#ffffff"
     id="path38" />
  <path
     d="m 89.26397,320.39758 a 15.223,15.223 0 0 1 11.49027,-16.01694 c 0.70954,-0.17426 1.01367,0.92015 0.30319,1.09464 a 14.09613,14.09613 0 0 0 -10.6579,14.92094 c 0.0633,0.728 -1.07266,0.72516 -1.13556,10e-4 z"
     fill="#ffffff"
     id="path40" />
  <path
     d="m 61.53751,334.63939 a 29.341,29.341 0 0 0 20.16282,7.11958 c 0.73089,-0.0251 0.73137,1.11048 0.001,1.13556 a 30.519,30.519 0 0 1 -20.96618,-7.45121 c -0.55269,-0.48016 0.25232,-1.28148 0.802,-0.80393 z"
     fill="#ffffff"
     id="path42" />
  <path
     d="m 122.33079,321.1292 a 8.61693,8.61693 0 0 0 2.963,7.62068 c 0.5585,0.47292 -0.24714,1.27377 -0.802,0.80393 a 9.656,9.656 0 0 1 -3.2966,-8.42325 0.58686,0.58686 0 0 1 0.5671,-0.56846 0.57065,0.57065 0 0 1 0.56846,0.5671 z"
     fill="#ffffff"
     id="path44" />
  <path
     d="m 712.66491,429.59268 c -9.68947,-23.87372 -31.516,-44.10561 -57.223,-45.83088 a 118.70969,118.70969 0 0 1 21.09071,78.72606 c -0.99576,10.75975 -3.22363,22.62349 2.82479,31.57791 3.76336,5.57173 10.20385,8.88026 16.78308,10.26509 6.57959,1.38473 13.38321,1.06186 20.09888,0.73254 l 1.52623,0.69848 c 3.97953,-25.4559 4.58877,-52.29549 -5.10069,-76.1692 z"
     fill="#f2f2f2"
     id="path46" />
  <path
     d="m 655.33335,384.29141 a 101.46487,101.46487 0 0 1 39.14549,48.62911 43.6942,43.6942 0 0 1 3.06122,13.3436 25.06057,25.06057 0 0 1 -3.01175,12.84082 c -1.91461,3.70856 -4.30251,7.28029 -5.28229,11.38968 a 15.34469,15.34469 0 0 0 2.51838,12.29392 c 3.03176,4.45727 7.48427,7.55936 11.94389,10.44163 4.95155,3.20022 10.14536,6.44579 13.26959,11.61032 0.37854,0.62576 1.32737,0.002 0.9494,-0.623 -5.43562,-8.98541 -16.37587,-11.985 -23.2375,-19.55118 -3.20176,-3.53055 -5.35895,-8.04737 -4.54424,-12.89826 0.71244,-4.24188 3.17171,-7.92719 5.14275,-11.66543 a 26.74158,26.74158 0 0 0 3.41262,-12.44582 40.39429,40.39429 0 0 0 -2.53691,-13.41205 98.439,98.439 0 0 0 -14.68766,-27.03433 103.2639,103.2639 0 0 0 -25.63769,-23.93611 c -0.60971,-0.39948 -1.11106,0.62026 -0.50533,1.01713 z"
     fill="#ffffff"
     id="path48" />
  <path
     d="m 692.40481,426.3618 a 15.223,15.223 0 0 0 7.06506,-18.40254 c -0.24441,-0.68854 -1.32584,-0.34108 -1.0811,0.34837 a 14.09613,14.09613 0 0 1 -6.607,17.10477 c -0.64291,0.34726 -0.0162,1.29467 0.623,0.9494 z"
     fill="#ffffff"
     id="path50" />
  <path
     d="m 695.74675,457.35241 a 29.341,29.341 0 0 1 -17.03,-12.93084 c -0.38075,-0.6244 -1.32969,-6.3e-4 -0.9494,0.623 a 30.51906,30.51906 0 0 0 17.74861,13.4197 c 0.70491,0.1978 0.93187,-0.91514 0.23079,-1.11187 z"
     fill="#ffffff"
     id="path52" />
  <path
     d="m 673.61876,399.13987 a 8.61693,8.61693 0 0 1 -7.99493,1.7133 c -0.702,-0.20663 -0.92827,0.90658 -0.23079,1.11187 a 9.656,9.656 0 0 0 8.84874,-1.87578 0.58685,0.58685 0 0 0 0.16319,-0.7862 0.57065,0.57065 0 0 0 -0.78621,-0.16319 z"
     fill="#ffffff"
     id="path54" />
  <path
     d="m 595.46921,447.11226 c 0.43471,0.14149 0.86941,0.283 1.30705,0.43363 a 113.47979,113.47979 0 0 1 16.94746,7.18631 c 0.4245,0.21369 0.85148,0.43665 1.269,0.66209 a 119.63349,119.63349 0 0 1 34.30249,27.62862 116.1803,116.1803 0 0 1 10.40889,14.25679 c 4.28507,6.91836 8.38071,14.76057 14.5203,19.71352 a 19.933,19.933 0 0 0 1.99594,1.44955 l 40.57483,-10.87314 c 0.0798,-0.071 0.16254,-0.13288 0.2428,-0.204 l 1.63988,-0.36005 c -0.142,-0.26954 -0.29506,-0.546 -0.437,-0.81556 -0.0817,-0.15669 -0.17247,-0.311 -0.25419,-0.46766 -0.0573,-0.10369 -0.11515,-0.20732 -0.161,-0.30417 -0.019,-0.0346 -0.0384,-0.0691 -0.0548,-0.0944 -0.0458,-0.0968 -0.0987,-0.182 -0.142,-0.26953 q -1.277,-2.32185 -2.591,-4.63382 c -0.002,-0.009 -0.002,-0.009 -0.014,-0.0161 -6.70494,-11.727 -14.44781,-22.99734 -23.65514,-32.73414 -0.27711,-0.29285 -0.55625,-0.59509 -0.8519,-0.883 a 110.86056,110.86056 0 0 0 -13.52812,-12.012 98.00839,98.00839 0 0 0 -8.23678,-5.522 81.499,81.499 0 0 0 -23.65365,-9.47717 c -16.6117,-3.78376 -34.24859,-2.21269 -48.54339,6.6485 -0.36562,0.22697 -0.72257,0.45156 -1.08562,0.68777 z"
     fill="#f2f2f2"
     id="path56" />
  <path
     d="m 595.69844,447.6028 a 101.46484,101.46484 0 0 1 60.53356,15.25934 43.69414,43.69414 0 0 1 10.478,8.811 25.06059,25.06059 0 0 1 5.32635,12.066 c 0.7041,4.1138 0.94792,8.4033 2.63976,12.27431 a 15.34468,15.34468 0 0 0 9.41257,8.29977 c 5.10427,1.73356 10.527,1.52968 15.82311,1.146 5.88029,-0.426 11.98132,-0.96161 17.58524,1.281 0.679,0.27172 1.06091,-0.79774 0.38294,-1.069 -9.74986,-3.90172 -20.291,0.2901 -30.325,-1.61994 -4.68206,-0.89126 -9.12389,-3.19892 -11.394,-7.56259 -1.98507,-3.81585 -2.24029,-8.239 -2.9172,-12.41048 a 26.74153,26.74153 0 0 0 -4.76845,-11.992 40.394,40.394 0 0 0 -10.10057,-9.18138 98.43872,98.43872 0 0 0 -28.0038,-12.74241 103.264,103.264 0 0 0 -34.88145,-3.676 c -0.72734,0.0481 -0.51368,1.16418 0.20891,1.11637 z"
     fill="#ffffff"
     id="path58" />
  <path
     d="m 650.62721,458.87408 a 15.223,15.223 0 0 0 -5.43854,-18.94706 c -0.6097,-0.4026 -1.264,0.52592 -0.65346,0.92906 a 14.09612,14.09612 0 0 1 5.023,17.635 c -0.30425,0.66435 0.76654,1.04349 1.06905,0.383 z"
     fill="#ffffff"
     id="path60" />
  <path
     d="m 671.95404,481.60625 a 29.341,29.341 0 0 1 -21.38276,-0.0713 c -0.67993,-0.26931 -1.06206,0.80006 -0.38295,1.06905 a 30.51914,30.51914 0 0 0 22.25086,0.029 c 0.68192,-0.26648 0.19306,-1.29174 -0.48515,-1.02672 z"
     fill="#ffffff"
     id="path62" />
  <path
     d="m 619.23811,448.44937 a 8.617,8.617 0 0 1 -5.352,6.18148 c -0.685,0.2577 -0.19535,1.28273 0.48515,1.02671 a 9.656,9.656 0 0 0 5.93587,-6.82525 0.58684,0.58684 0 0 0 -0.34305,-0.726 0.57064,0.57064 0 0 0 -0.726,0.34305 z"
     fill="#ffffff"
     id="path64" />
  <circle
     cx="524.6825"
     cy="501.3399"
     r="9.5460196"
     fill="#fd6584"
     id="circle66"
     style="fill:#559df2;fill-opacity:1" />
  <circle
     cx="558.49622"
     cy="338.74991"
     r="9.5460196"
     fill="#e6e6e6"
     id="circle68" />
  <circle
     cx="380.86746"
     cy="73.96167"
     r="9.5460196"
     fill="#e6e6e6"
     id="circle70" />
  <path
     d="m 180.82547,440.14562 c 0,2.43 0.08,4.86 0.25,7.27 0.18,2.88 0.49,5.74 0.91,8.58 a 107.2491,107.2491 0 0 0 8.02,27.73 q 0.29993,0.66 0.6,1.32 l 0.3,0.66 c 0.1,0.22 0.21,0.44 0.31,0.65 0.14,0.29 0.27,0.57 0.41,0.85 0.17,0.35 0.34,0.7 0.52,1.05 0.02,0.04 0.04,0.09 0.07,0.14 0.15,0.3 0.29,0.59 0.45,0.89 a 1.7462,1.7462 0 0 0 0.1,0.19 c 0.17,0.34 0.35,0.69 0.53,1.03 0.2,0.36005 0.39,0.73 0.59,1.09 0.48,0.89 0.98,1.77 1.49,2.65 0.15,0.26 0.3,0.52 0.46,0.78 0.14,0.24 0.28,0.48 0.43,0.72 0.1,0.16 0.2,0.33 0.3,0.49 0.16,0.27 0.32,0.53 0.49,0.8 0.37,0.59 0.75,1.18 1.12,1.77 h 0.01 c 0.17,0.27 0.35,0.54 0.53,0.8 v 0.01 c 0.53,0.8 1.08,1.6 1.63,2.38995 a 0.0098,0.0098 0 0 1 0.01,0.01 c 0.44,0.64 0.9,1.26 1.35,1.88 v 0.01 c 0.3,0.39 0.59,0.79 0.89,1.18 0.24,0.32 0.49,0.65 0.74,0.97 0.05,0.0699 0.11,0.12994 0.16,0.2 v 0.01 c 0.07,0.09 0.14,0.17 0.21,0.26 q 1.59,2.04 3.28,3.99 l 0.18,0.21 c 0.06,0.07 0.13,0.14 0.19,0.22 0.1,0.11005 0.19,0.22 0.29,0.33 0.09,0.11 0.19,0.22 0.29,0.33 a 108.617,108.617 0 0 0 19.83,17.49 c 0.97,0.67 1.96,1.32 2.95,1.95 0.25,0.16 0.5,0.32 0.75,0.47 0.07,0.05 0.15,0.1 0.22,0.15 0.14,0.08 0.27,0.16 0.41,0.25 0.13,0.08 0.26,0.16 0.4,0.24 0.53,0.33 1.07,0.65 1.61,0.97 0.13,0.08 0.27,0.16 0.41,0.24006 0.13,0.0699 0.27,0.15 0.41,0.23 0,0.01 0,0.01 0.01,0.01 h 0.01 v 0.01 h 0.01 q 1.00506,0.58492 2.04,1.13995 c 0.37,0.2 0.75,0.41 1.13,0.6 0.86,0.47 1.73,0.92 2.6,1.35 0.31,0.15 0.63,0.3 0.94,0.46 0.26,0.12 0.52,0.25 0.78,0.37 0.08,0.04 0.15,0.07 0.22,0.11 0.22,0.1 0.43,0.2 0.65,0.3 0.24,0.11005 0.48,0.22 0.71,0.33 0.27,0.12 0.53,0.24 0.8,0.35 1,0.45 2.01,0.88 3.02,1.29 a 105.87419,105.87419 0 0 0 11.08,3.84 c 0.17,0.05 0.35,0.1 0.53,0.15 q 2.41508,0.675 4.86005,1.23 4.275,0.99006 8.63,1.62 h 0.02 c 0.35,0.05 0.69,0.1 1.04,0.15 0.03,0 0.06,0.01 0.1,0.01 0,0.01 0,0.01 0.01,0 0.38,0.05 0.77,0.1 1.15,0.15 a 0.24843,0.24843 0 0 0 0.08,0.01 c 0.36,0.05 0.73,0.09 1.09,0.13 q 0.58494,0.06 1.17,0.12 0.45,0.045 0.9,0.09 a 0.19454,0.19454 0 0 0 0.08,0.01 c 0.27,0.02 0.54,0.05 0.81,0.07 h 0.04 c 0.23,0.02 0.47,0.04 0.7,0.0601 2.79,0.22 5.59,0.31994 8.43,0.31994 3.07,0 6.12,-0.12 9.13,-0.38 h 0.03 c 0.65,-0.06 1.29,-0.12 1.93,-0.18 0.17,-0.02 0.33,-0.03 0.5,-0.05 0.03,0 0.07,-0.01 0.1,-0.01 0.05,-0.01 0.1,-0.01 0.16,-0.02 a 0.24843,0.24843 0 0 0 0.08,-0.01 c 0.22,-0.02 0.44,-0.05 0.67,-0.07 l 0.75,-0.09 c 0.25,-0.03 0.5,-0.07 0.75,-0.1 0.06,-0.01 0.11,-0.01 0.17,-0.02 0.18,-0.02 0.36,-0.05 0.54,-0.08 0.09,-0.01 0.18,-0.02 0.26,-0.03 0.18,-0.03 0.35,-0.05 0.53,-0.08 h 0.01 a 105.706,105.706 0 0 0 16.2,-3.65 c 0.28,-0.09 0.56,-0.17005 0.84,-0.26 0.01,0 0.02,-0.01 0.03,-0.01 0.08,-0.03 0.17,-0.05 0.25,-0.08 0.75,-0.24 1.49,-0.49 2.23,-0.75 1.02,-0.34 2.03,-0.71 3.04,-1.09 0.27,-0.11 0.54,-0.21 0.81,-0.32 0.55,-0.21 1.09,-0.43 1.63,-0.65 0.92,-0.37 1.84,-0.76 2.75,-1.16 0.85,-0.38 1.69,-0.76 2.53,-1.16 0.02,-0.01 0.05,-0.01 0.07,-0.03 0.19,-0.09 0.38,-0.18 0.56,-0.27 h 0.01 a 107.18912,107.18912 0 0 0 13.29,-7.59 q 2.04,-1.365 4.02,-2.82 c 1.06,-0.79 2.1,-1.59 3.14,-2.41 a 108.28427,108.28427 0 0 0 14.19,-13.56 v -0.01 c 0.31,-0.34 0.6,-0.69 0.9,-1.04 0.05,-0.05 0.09,-0.1 0.13,-0.14 0.19,-0.23 0.37,-0.45 0.56,-0.67 v -0.01 c 0.25,-0.29 0.5,-0.59 0.74,-0.89 0.06,-0.0699 0.11,-0.12994 0.16,-0.19 v -0.01 c 0.2,-0.24 0.38995,-0.48 0.59,-0.73 0.1,-0.12 0.19,-0.24 0.29,-0.36 v -0.01 c 0.59,-0.74 1.16,-1.48 1.73,-2.24 0.15,-0.2 0.3,-0.41 0.46,-0.62 0.72,-0.97 1.42,-1.96 2.1,-2.95 v -0.01 c 0.26,-0.37 0.51,-0.75 0.77,-1.12 q 0.375,-0.57 0.75,-1.13995 c 0.25,-0.4 0.51,-0.79 0.76,-1.19 l 0.03,-0.06 c 0.25,-0.38 0.5,-0.78 0.74,-1.17 0.19,-0.32 0.38,-0.63 0.57,-0.94 0.12,-0.21 0.25,-0.42 0.37,-0.63995 a 2.3919,2.3919 0 0 0 0.13,-0.21 q 0.42,-0.735 0.84,-1.47 c 0.33,-0.56994 0.65,-1.15 0.97,-1.73 0.12,-0.24 0.25,-0.48 0.38,-0.72 0.05,-0.08 0.09,-0.16 0.13,-0.24 0.15,-0.28 0.3,-0.56994 0.44,-0.86 0.15,-0.28 0.3,-0.57 0.45,-0.86 0.13995,-0.28 0.29,-0.57 0.43,-0.86 0.11,-0.22 0.21,-0.44 0.32,-0.66 a 0.2175,0.2175 0 0 1 0.03,-0.05 c 0.05,-0.11 0.1,-0.21 0.14,-0.31 a 0.21619,0.21619 0 0 0 0.03,-0.05 c 0.11,-0.22 0.21,-0.45 0.32,-0.67 0.14,-0.29 0.27,-0.59 0.41,-0.88 0.09,-0.2 0.19,-0.41 0.28,-0.62 0.13,-0.29 0.27,-0.58 0.39,-0.88 0.14,-0.30005 0.27,-0.6 0.4,-0.91 a 2.29962,2.29962 0 0 0 0.1,-0.23 c 0.07,-0.14 0.12,-0.28 0.18,-0.42 0.16,-0.37 0.32,-0.75 0.47,-1.12 0.18,-0.42 0.35,-0.85 0.51,-1.27 0.16,-0.39 0.31,-0.79 0.46,-1.19 l 0.06,-0.14 a 108.31693,108.31693 0 0 0 5.28,-18.93 v -0.01 a 109.43156,109.43156 0 0 0 1.43,-11.14 c 0.01,-0.21 0.03,-0.41 0.04,-0.61 0.18,-2.53 0.26,-5.07 0.26,-7.62 0,-1.13 -0.02,-2.25 -0.05,-3.37 a 107.22221,107.22221 0 0 0 -23.78,-64.2 c -0.32,-0.4 -0.64,-0.8 -0.97,-1.2 -0.33,-0.4 -0.67,-0.79 -1,-1.18 a 107.74949,107.74949 0 0 0 -173.04,12.43 c -0.49,0.78 -0.98,1.57 -1.45,2.36005 -0.48,0.8 -0.94,1.6 -1.4,2.41 a 107.27619,107.27619 0 0 0 -13.78005,52.74984 z"
     fill="#f2f2f2"
     id="path72" />
  <path
     d="m 284.28336,369.67927 a 254.162,254.162 0 0 0 54.14823,7.81528 67.79984,67.79984 0 0 0 8.29619,-0.0564 c 6.069,-0.51045 11.26756,-2.41793 17.05716,-3.46033 2.78331,-0.4997 5.88364,-0.86509 8.68575,-1.40509 q -0.97121,-1.20493 -1.97732,-2.38032 c -6.04216,0.51046 -12.17832,2.18151 -18.293,2.95794 -10.39442,1.3218 -22.04079,-0.15314 -29.92056,-3.79078 -3.823,-1.76509 -6.75141,-3.96809 -10.561,-5.74124 a 4.9219,4.9219 0 0 0 -1.65762,-0.50777 5.76807,5.76807 0 0 0 -3.1272,0.81136 c -6.39139,3.22658 -15.67088,5.84869 -24.28409,4.406 -0.64209,0.50239 0.57763,1.07463 1.63346,1.35136 z"
     fill="#ffffff"
     id="path74" />
  <path
     d="m 246.16865,381.03417 c -0.0787,-0.0144 -0.15753,-0.0256 -0.23624,-0.0392 a 6.42127,6.42127 0 0 0 0.93083,-0.7013 z"
     fill="#ffffff"
     id="path76" />
  <path
     d="m 194.60764,387.40001 q 5.396,0.4312 10.84845,0.6421 a 68.3417,68.3417 0 0 0 8.2962,-0.0564 c 6.069,-0.51315 11.26756,-2.41793 17.05716,-3.46033 5.306,-0.95375 11.75383,-1.41315 15.12283,-3.53018 -8.70725,-1.50718 -17.72881,1.56091 -26.70741,2.70271 a 63.77318,63.77318 0 0 1 -21.76406,-1.07464 q -1.49106,2.3454 -2.85317,4.77675 z"
     fill="#ffffff"
     id="path78" />
  <path
     d="m 238.12551,535.35565 c 0.86,0.47 1.73,0.92 2.6,1.35 0.31,0.15 0.63,0.3 0.94,0.46 0.26,0.12 0.52,0.25 0.78,0.37 0.08,0.04 0.15,0.07 0.22,0.11 0.22,0.1 0.43,0.2 0.65,0.3 0.24,0.11005 0.48,0.22 0.71,0.33 0.27,0.12 0.53,0.24 0.8,0.35 1,0.45 2.01,0.88 3.02,1.29 a 105.87419,105.87419 0 0 0 11.08,3.84 c 0.17,0.05 0.35,0.1 0.53,0.15 q 2.41508,0.675 4.86005,1.23 4.275,0.99006 8.63,1.62 h 0.02 c 0.35,0.05 0.69,0.1 1.04,0.15 0.03,0 0.06,0.01 0.1,0.01 0,0.01 0,0.01 0.01,0 0.38,0.05 0.77,0.1 1.15,0.15 a 0.24843,0.24843 0 0 0 0.08,0.01 c 0.36,0.05 0.73,0.09 1.09,0.13 q 0.58494,0.06 1.17,0.12 0.45,0.045 0.9,0.09 a 0.19454,0.19454 0 0 0 0.08,0.01 c 0.27,0.02 0.54,0.05 0.81,0.07 h 0.04 c 0.23,0.02 0.47,0.04 0.7,0.0601 2.79,0.22 5.59,0.31994 8.43,0.31994 3.07,0 6.12,-0.12 9.13,-0.38 h 0.03 c 0.65,-0.06 1.29,-0.12 1.93,-0.18 0.17,-0.02 0.33,-0.03 0.5,-0.05 0.03,0 0.07,-0.01 0.1,-0.01 0.05,-0.01 0.1,-0.01 0.16,-0.02 a 0.24843,0.24843 0 0 0 0.08,-0.01 c 0.22,-0.02 0.44,-0.05 0.67,-0.07 l 0.75,-0.09 c 0.25,-0.03 0.5,-0.07 0.75,-0.1 0.06,-0.01 0.11,-0.01 0.17,-0.02 0.18,-0.02 0.36,-0.05 0.54,-0.0799 0.09,-0.01 0.18,-0.02 0.26,-0.03 0.18,-0.03 0.35,-0.05 0.53,-0.08 h 0.01 a 105.706,105.706 0 0 0 16.2,-3.65 c 0.28,-0.09 0.56,-0.17005 0.84,-0.26 a 40.177,40.177 0 0 0 -22.03,-27.86 9.49736,9.49736 0 0 0 2.73,-4.86005 9.29434,9.29434 0 0 0 -1.28,-7.01995 8.9678,8.9678 0 0 0 -5.66,-3.88 l -14.82,-3.1 a 9.2231,9.2231 0 0 0 -10.8,7.2 9.76284,9.76284 0 0 0 -0.2,2.22 c -14.27004,9.49995 -24.54006,19.34992 -31.03005,29.80995 z"
     fill="#6c63ff"
     id="path80"
     style="fill:#559df2;fill-opacity:1" />
  <circle
     cx="281.88446"
     cy="459.39661"
     r="30.875561"
     fill="#ffb8b8"
     id="circle82" />
  <path
     d="m 262.63923,486.01627 c -3.29254,-2.24911 -6.65479,-6.57094 -8.89946,-9.81005 a 37.07482,37.07482 0 0 1 -5.72473,-29.60121 11.3042,11.3042 0 0 1 2.65776,-5.44507 c 1.45423,-1.439 3.82936,-2.12133 5.60422,-1.10373 a 10.13228,10.13228 0 0 1 0.41151,-8.03954 17.85678,17.85678 0 0 1 5.27941,-6.28793 29.73759,29.73759 0 0 1 30.2834,-3.58533 c 1.92864,0.89366 -1.23909,-6.00834 0.77965,-5.34279 a 8.22979,8.22979 0 0 0 6.21161,-0.10916 c 1.89865,-0.95571 8.19188,4.72263 7.46365,2.72565 a 9.37686,9.37686 0 0 1 2.17171,15.70349 c -1.59351,1.34506 -3.583,2.11958 -5.32779,3.26163 a 15.29686,15.29686 0 0 0 -4.67894,19.74039 20.26618,20.26618 0 0 0 -5.96467,-2.592 6.85938,6.85938 0 0 0 -6.10476,1.46829 7.70642,7.70642 0 0 0 -1.86711,5.81588 c 0.0692,2.09526 0.56765,4.15949 0.6236,6.25514 0.16417,6.14915 3.45742,17.84 -1.3102,21.10849 -3.76244,2.57938 -17.11334,-1.09129 -21.60886,-4.16215 z"
     fill="#2f2e41"
     id="path84" />
  <path
     d="m 303.1138,304.85607 a 4.93032,4.93032 0 0 1 -1.89356,-0.38281 4.78958,4.78958 0 0 1 -3.0039,-4.49512 v -4.8872 a 3.8707,3.8707 0 0 0 -3.86622,-3.8667 4.87211,4.87211 0 0 1 -4.8667,-4.8667 v -66.95508 a 4.872,4.872 0 0 1 4.86622,-4.8667 H 516.1763 a 4.87211,4.87211 0 0 1 4.8667,4.8667 v 66.95508 a 4.87211,4.87211 0 0 1 -4.8667,4.8667 H 320.32083 a 3.8427,3.8427 0 0 0 -2.73438,1.13232 l -11.062,11.062 a 4.79813,4.79813 0 0 1 -3.41065,1.43751 z"
     fill="#ffffff"
     id="path100" />
  <path
     d="m 303.1138,305.85607 a 5.9116,5.9116 0 0 1 -2.27686,-0.459 5.77532,5.77532 0 0 1 -3.6206,-5.41895 v -4.88672 a 2.86981,2.86981 0 0 0 -2.86622,-2.86718 5.87351,5.87351 0 0 1 -5.8667,-5.86719 v -66.95457 a 5.873,5.873 0 0 1 5.86622,-5.8667 H 516.1763 a 5.87341,5.87341 0 0 1 5.8667,5.8667 v 66.95459 a 5.87351,5.87351 0 0 1 -5.8667,5.86719 H 320.32083 a 2.84681,2.84681 0 0 0 -2.02735,0.83984 l -11.062,11.06152 a 5.79479,5.79479 0 0 1 -4.11768,1.73047 z m -8.76416,-90.32027 a 3.8707,3.8707 0 0 0 -3.86622,3.8667 v 66.95459 a 3.87091,3.87091 0 0 0 3.8667,3.86719 4.87241,4.87241 0 0 1 4.86622,4.86718 v 4.88672 a 3.86665,3.86665 0 0 0 6.60058,2.7334 l 11.0625,-11.06152 a 4.83313,4.83313 0 0 1 3.44141,-1.42578 H 516.1763 a 3.87091,3.87091 0 0 0 3.8667,-3.86719 v -66.95463 a 3.8708,3.8708 0 0 0 -3.8667,-3.8667 z"
     fill="#3f3d56"
     id="path102" />
  <path
     d="M 497.11428,244.84826 H 317.23591 a 2.59082,2.59082 0 0 1 0,-5.18164 h 179.87837 a 2.59082,2.59082 0 0 1 0,5.18164 z"
     fill="#6c63ff"
     id="path104"
     style="fill:#559df2;fill-opacity:1" />
  <path
     d="M 496.78372,255.8551 H 317.23591 a 2.59082,2.59082 0 0 1 0,-5.18164 h 179.54781 a 2.59082,2.59082 0 1 1 0,5.18164 z"
     fill="#e6e6e6"
     id="path106" />
  <path
     d="m 496.60501,266.86144 h -179.3691 a 2.59082,2.59082 0 0 1 0,-5.18164 h 179.3691 a 2.59082,2.59082 0 0 1 0,5.18164 z"
     fill="#e6e6e6"
     id="path108" />
  <path
     d="m 780.38552,204.14562 c 0,2.43 -0.08,4.86 -0.25,7.27 -0.18,2.88 -0.49,5.74 -0.91,8.58 a 107.2491,107.2491 0 0 1 -8.02,27.73 q -0.29993,0.66 -0.6,1.32 l -0.3,0.66 c -0.1,0.22 -0.21,0.44 -0.31,0.65 -0.14,0.29 -0.27,0.57 -0.41,0.85 -0.17,0.35 -0.34,0.7 -0.52,1.05 -0.02,0.04 -0.04,0.09 -0.07,0.14 -0.15,0.3 -0.29,0.59 -0.45,0.89 a 1.7462,1.7462 0 0 1 -0.1,0.19 c -0.17,0.34 -0.35,0.69 -0.53,1.03 -0.2,0.36005 -0.39,0.73 -0.59,1.09 -0.48,0.89 -0.98,1.77 -1.49,2.65 -0.15,0.26 -0.3,0.52 -0.46,0.78 -0.14,0.24 -0.28,0.48 -0.43,0.72 -0.1,0.16 -0.2,0.33 -0.30005,0.49 -0.16,0.27 -0.32,0.53 -0.49,0.8 -0.37,0.59 -0.75,1.18 -1.12,1.77 h -0.01 c -0.17,0.27 -0.35,0.54 -0.53,0.8 v 0.01 c -0.53,0.8 -1.08,1.6 -1.63,2.38995 a 0.0098,0.0098 0 0 0 -0.01,0.01 c -0.44,0.64 -0.9,1.26 -1.35,1.88 v 0.01 c -0.3,0.39 -0.59,0.79 -0.89,1.18 -0.24,0.32 -0.49,0.65 -0.74,0.97 -0.05,0.0699 -0.11,0.12994 -0.16,0.2 v 0.01 c -0.07,0.09 -0.14,0.17 -0.21,0.26 q -1.59,2.04 -3.28,3.99 l -0.18,0.21 c -0.06,0.07 -0.13,0.14 -0.19,0.22 -0.1,0.11005 -0.19,0.22 -0.29,0.33 -0.09,0.11 -0.19,0.22 -0.29,0.33 a 108.617,108.617 0 0 1 -19.83,17.49 c -0.97,0.67 -1.96,1.32 -2.95,1.95 -0.25,0.16 -0.5,0.32 -0.75,0.47 -0.07,0.05 -0.15,0.1 -0.22,0.15 -0.14,0.08 -0.27,0.16 -0.41,0.25 -0.13,0.08 -0.26,0.16 -0.4,0.24 -0.53,0.33 -1.07,0.65 -1.61,0.97 -0.13,0.08 -0.27,0.16 -0.41,0.24006 -0.13,0.0699 -0.27,0.15 -0.41,0.23 0,0.01 0,0.01 -0.01,0.01 h -0.01 v 0.01 h -0.01 q -1.00506,0.58492 -2.04,1.13995 c -0.37,0.2 -0.75,0.41 -1.13,0.6 -0.86,0.47 -1.73,0.92 -2.6,1.35 -0.31,0.15 -0.63,0.3 -0.94,0.46 -0.26,0.12 -0.52,0.25 -0.78,0.37 -0.08,0.04 -0.15,0.07 -0.22,0.11 -0.22,0.1 -0.43,0.2 -0.65,0.3 -0.24,0.11005 -0.48,0.22 -0.71,0.33 -0.27,0.12 -0.53,0.24 -0.8,0.35 -1,0.45 -2.01,0.88 -3.02,1.29 a 105.87419,105.87419 0 0 1 -11.08,3.84 c -0.17,0.05 -0.35,0.1 -0.53,0.15 q -2.41508,0.675 -4.86005,1.23 -4.275,0.99006 -8.63,1.62 h -0.02 c -0.35,0.05 -0.69,0.1 -1.04,0.15 -0.03,0 -0.06,0.01 -0.1,0.01 0,0.01 0,0.01 -0.01,0 -0.38,0.05 -0.77,0.1 -1.15,0.15 a 0.24843,0.24843 0 0 1 -0.08,0.01 c -0.36,0.05 -0.73,0.09 -1.09,0.13 q -0.58494,0.06 -1.17,0.12 -0.45,0.045 -0.9,0.09 a 0.19454,0.19454 0 0 1 -0.08,0.01 c -0.27,0.02 -0.54,0.05 -0.81,0.07 h -0.04 c -0.23,0.02 -0.47,0.04 -0.7,0.0601 -2.79,0.22 -5.59,0.31994 -8.43,0.31994 -3.07,0 -6.12,-0.12 -9.13,-0.38 h -0.03 c -0.65,-0.06 -1.29,-0.12 -1.93,-0.18 -0.17,-0.02 -0.33,-0.03 -0.5,-0.05 -0.03,0 -0.07,-0.01 -0.1,-0.01 -0.05,-0.01 -0.1,-0.01 -0.16,-0.02 a 0.24843,0.24843 0 0 1 -0.08,-0.01 c -0.22,-0.02 -0.44,-0.05 -0.67,-0.07 l -0.75,-0.09 c -0.25,-0.03 -0.5,-0.07 -0.75,-0.1 -0.06,-0.01 -0.11,-0.01 -0.17,-0.02 -0.18,-0.02 -0.36,-0.05 -0.54,-0.08 -0.09,-0.01 -0.18,-0.02 -0.26,-0.03 -0.18,-0.03 -0.35,-0.05 -0.53,-0.08 h -0.01 a 105.706,105.706 0 0 1 -16.2,-3.65 c -0.28,-0.09 -0.56,-0.17005 -0.84,-0.26 -0.01,0 -0.02,-0.01 -0.03,-0.01 -0.08,-0.03 -0.17,-0.05 -0.25,-0.08 -0.75,-0.24 -1.49,-0.49 -2.23,-0.75 -1.02,-0.34 -2.03,-0.71 -3.04,-1.09 -0.27,-0.11 -0.54,-0.21 -0.81,-0.32 -0.55,-0.21 -1.09,-0.43 -1.63,-0.65 -0.92,-0.37 -1.84,-0.76 -2.75,-1.16 -0.85,-0.38 -1.69,-0.76 -2.53,-1.16 -0.02,-0.01 -0.05,-0.01 -0.07,-0.03 -0.19,-0.09 -0.38,-0.18 -0.56,-0.27 h -0.01 a 107.18912,107.18912 0 0 1 -13.29,-7.59 q -2.04,-1.365 -4.02,-2.82 c -1.06,-0.79 -2.1,-1.59 -3.14,-2.41 a 108.28427,108.28427 0 0 1 -14.19,-13.56 v -0.01 c -0.31,-0.34 -0.6,-0.69 -0.9,-1.04 -0.05,-0.05 -0.09,-0.1 -0.13,-0.14 -0.19,-0.23 -0.37,-0.45 -0.56,-0.67 v -0.01 c -0.25,-0.29 -0.5,-0.59 -0.74,-0.89 -0.06,-0.0699 -0.11,-0.12994 -0.16,-0.19 v -0.01 c -0.2,-0.24 -0.39,-0.48 -0.59,-0.73 -0.1,-0.12 -0.19,-0.24 -0.29,-0.36 v -0.01 c -0.59,-0.74 -1.16,-1.48 -1.73,-2.24 -0.15,-0.2 -0.3,-0.41 -0.46,-0.62 -0.72,-0.97 -1.42,-1.96 -2.1,-2.95 v -0.01 c -0.26,-0.37 -0.51,-0.75 -0.77,-1.12 q -0.375,-0.57 -0.75,-1.13995 c -0.25,-0.4 -0.51,-0.79 -0.76,-1.19 l -0.03,-0.06 c -0.25,-0.38 -0.5,-0.78 -0.74,-1.17005 -0.19,-0.32 -0.38,-0.63 -0.57,-0.94 -0.12,-0.21 -0.25,-0.42 -0.37,-0.63995 a 2.3919,2.3919 0 0 1 -0.13,-0.21 q -0.42,-0.735 -0.84,-1.47 c -0.33,-0.56994 -0.65,-1.15 -0.97,-1.73 -0.12,-0.24 -0.25,-0.48 -0.38,-0.72 -0.05,-0.08 -0.09,-0.16 -0.13,-0.24 -0.15,-0.28 -0.3,-0.56994 -0.44,-0.86 -0.15,-0.28 -0.3,-0.57 -0.45,-0.86 -0.14,-0.28 -0.29,-0.57 -0.43,-0.86 -0.11,-0.22 -0.21,-0.44 -0.32,-0.66 a 0.2175,0.2175 0 0 0 -0.03,-0.05 c -0.05,-0.11 -0.1,-0.21 -0.14,-0.31 a 0.21619,0.21619 0 0 1 -0.03,-0.05 c -0.11005,-0.22 -0.21,-0.45 -0.32,-0.67 -0.14,-0.29 -0.27,-0.59 -0.41,-0.88 -0.09,-0.2 -0.19,-0.41 -0.28,-0.62 -0.13,-0.29 -0.27,-0.58 -0.39,-0.88 -0.14,-0.3 -0.27,-0.6 -0.4,-0.91 a 2.29721,2.29721 0 0 1 -0.1,-0.23 c -0.07,-0.14 -0.12,-0.28 -0.18,-0.42 -0.16,-0.37 -0.32,-0.75 -0.47,-1.12 -0.18,-0.42005 -0.35,-0.85 -0.51,-1.27 -0.16,-0.39 -0.31,-0.79 -0.46,-1.19 l -0.06,-0.14 a 108.31693,108.31693 0 0 1 -5.28,-18.93 v -0.01 a 109.43156,109.43156 0 0 1 -1.43,-11.14 c -0.01,-0.21 -0.03,-0.41 -0.04,-0.61 -0.18,-2.53 -0.26,-5.07 -0.26,-7.62 0,-1.13 0.02,-2.25 0.05,-3.37 a 107.22221,107.22221 0 0 1 23.78,-64.2 c 0.32,-0.4 0.64,-0.8 0.97,-1.2 0.33,-0.4 0.67,-0.79 1,-1.18 a 107.74949,107.74949 0 0 1 173.04,12.43 c 0.49,0.78 0.98,1.57 1.45,2.36005 0.48,0.8 0.94,1.6 1.4,2.41 a 107.27629,107.27629 0 0 1 13.7801,52.74989 z"
     fill="#f2f2f2"
     id="path110" />
  <path
     d="m 676.92763,133.67927 a 254.162,254.162 0 0 1 -54.14823,7.81528 67.79984,67.79984 0 0 1 -8.29619,-0.0564 c -6.069,-0.51045 -11.26756,-2.41793 -17.05716,-3.46033 -2.78331,-0.4997 -5.88364,-0.86509 -8.68575,-1.40509 q 0.9712,-1.20494 1.97732,-2.38032 c 6.04216,0.51046 12.17832,2.18151 18.293,2.95794 10.39441,1.3218 22.04078,-0.15314 29.92055,-3.79078 3.823,-1.76509 6.75141,-3.96809 10.561,-5.74124 a 4.9219,4.9219 0 0 1 1.65762,-0.50777 5.768,5.768 0 0 1 3.1272,0.81136 c 6.39139,3.22658 15.67089,5.84869 24.28409,4.406 0.6421,0.50239 -0.57762,1.07463 -1.63345,1.35136 z"
     fill="#ffffff"
     id="path112" />
  <path
     d="m 715.04234,145.03417 c 0.0787,-0.0144 0.15753,-0.0256 0.23624,-0.0392 a 6.42127,6.42127 0 0 1 -0.93083,-0.7013 z"
     fill="#ffffff"
     id="path114" />
  <path
     d="m 766.60335,151.40001 q -5.396,0.4312 -10.84845,0.6421 a 68.3417,68.3417 0 0 1 -8.2962,-0.0564 c -6.069,-0.51315 -11.26756,-2.41793 -17.05716,-3.46033 -5.306,-0.95375 -11.75383,-1.41315 -15.12283,-3.53018 8.70725,-1.50718 17.72881,1.56091 26.70741,2.70271 a 63.77318,63.77318 0 0 0 21.76406,-1.07464 q 1.49106,2.3454 2.85317,4.77675 z"
     fill="#ffffff"
     id="path116" />
  <ellipse
     cx="660.50012"
     cy="218.20734"
     rx="32.358459"
     ry="33.07962"
     fill="#ffb6b6"
     id="ellipse118" />
  <path
     d="m 723.08548,299.35565 c -0.86,0.47 -1.73,0.92 -2.6,1.35 -0.31,0.15 -0.63,0.3 -0.94,0.46 -0.26,0.12 -0.52,0.25 -0.78,0.37 -0.08,0.04 -0.15,0.07 -0.22,0.11 -0.22,0.1 -0.43,0.2 -0.65,0.3 -0.24,0.11005 -0.48,0.22 -0.71,0.33 -0.27,0.12 -0.53,0.24 -0.8,0.35 -1,0.45 -2.01,0.88 -3.02,1.29 a 105.87419,105.87419 0 0 1 -11.08,3.84 c -0.17,0.05 -0.35,0.1 -0.53,0.15 q -2.41508,0.675 -4.86005,1.23 -4.275,0.99006 -8.63,1.62 h -0.02 c -0.35,0.05 -0.69,0.1 -1.04,0.15 -0.03,0 -0.06,0.01 -0.1,0.01 0,0.01 0,0.01 -0.01,0 -0.38,0.05 -0.77,0.1 -1.15,0.15 a 0.24843,0.24843 0 0 1 -0.08,0.01 c -0.36,0.05 -0.73,0.09 -1.09,0.13 q -0.58494,0.06 -1.17,0.12 -0.45,0.045 -0.9,0.09 a 0.19454,0.19454 0 0 1 -0.08,0.01 c -0.27,0.02 -0.54,0.05 -0.81,0.07 h -0.04 c -0.23,0.02 -0.47,0.04 -0.7,0.0601 -2.79,0.22 -5.59,0.31994 -8.43,0.31994 -3.07,0 -6.12,-0.12 -9.13,-0.38 h -0.03 c -0.65,-0.06 -1.29,-0.12 -1.93,-0.18 -0.17,-0.02 -0.33,-0.03 -0.5,-0.05 -0.03,0 -0.07,-0.01 -0.1,-0.01 -0.05,-0.01 -0.1,-0.01 -0.16,-0.02 a 0.24843,0.24843 0 0 1 -0.08,-0.01 c -0.22,-0.02 -0.44,-0.05 -0.67,-0.07 l -0.75,-0.09 c -0.25,-0.03 -0.5,-0.07 -0.75,-0.1 -0.06,-0.01 -0.11,-0.01 -0.17,-0.02 -0.18,-0.02 -0.36,-0.05 -0.54,-0.0799 -0.09,-0.01 -0.18,-0.02 -0.26,-0.03 -0.18,-0.03 -0.35,-0.05 -0.53,-0.08 h -0.01 a 105.706,105.706 0 0 1 -16.2,-3.65 c -0.28,-0.09 -0.56,-0.17005 -0.84,-0.26 a 40.177,40.177 0 0 1 22.03,-27.86 9.49736,9.49736 0 0 1 -2.73,-4.86005 9.29434,9.29434 0 0 1 1.28,-7.01995 8.9678,8.9678 0 0 1 5.66,-3.88 l 14.82,-3.1 a 9.22312,9.22312 0 0 1 10.8,7.2 9.7634,9.7634 0 0 1 0.2,2.22 c 14.27004,9.49995 24.54006,19.34992 31.03005,29.80995 z"
     fill="#6c63ff"
     id="path120"
     style="fill:#559df2;fill-opacity:1" />
  <path
     d="m 747.08804,203.86088 c -5.50024,-6.41419 -8.11524,-14.9242 -12.51227,-22.20783 -4.39709,-7.28369 -12.04883,-13.80261 -20.13245,-12.1076 -5.57232,1.16852 -9.87878,6.08563 -12.059,11.56769 -2.17974,5.482 -2.58838,11.52755 -2.97046,17.45013 0.135,-12.17114 -7.88372,-23.97028 -18.92974,-27.85394 -11.04517,-3.88364 -24.26429,0.44839 -31.205,10.22647 a 16.8664,16.8664 0 0 0 -22.40161,-0.47025 c -6.20825,5.54874 -7.58216,16.10984 -3.01642,23.18738 4.56574,7.07754 14.4538,9.71414 21.70959,5.78885 l 2.56519,2.35968 c -1.44391,5.05014 1.3562,11.01556 6.06323,12.9166 3.81684,1.54174 9.20532,1.28512 10.63361,5.29061 0.99817,2.79877 -0.86743,5.78617 -2.852,7.93683 -1.98407,2.15064 -4.34015,4.37152 -4.57843,7.3476 -0.36011,4.49042 4.28027,7.63605 8.49853,8.5834 10.17145,2.28446 21.4574,-2.42572 27.31989,-11.4021 q 0.16946,-0.25964 0.36853,-0.52 a 39.27849,39.27849 0 0 0 7.90057,-30.03344 c -0.32977,-2.07468 0.002,-3.61783 1.43292,-4.10916 6.18256,-2.12369 23.50434,2.33352 28.74653,6.36187 5.24261,4.02835 9.44061,9.3595 14.49,13.64783 5.04986,4.28839 11.48462,7.59625 17.89618,6.42847 5.135,-0.93528 9.50348,-4.66327 12.44189,-9.16 2.938,-4.4967 4.629,-9.73825 6.14374,-14.94729 -11.35496,6.55963 -26.89549,3.81378 -35.55302,-6.2818 z"
     fill="#2f2e41"
     id="path122" />
  <path
     d="m 82.82547,137.14562 c 0,2.43 0.08,4.86 0.25,7.27 0.18,2.88 0.49,5.74 0.91,8.58 a 107.2491,107.2491 0 0 0 8.02,27.73 q 0.29993,0.66 0.6,1.32 l 0.3,0.66 c 0.1,0.22 0.21,0.44 0.31,0.65 0.14,0.29 0.27,0.57 0.41,0.85 0.17,0.35 0.34,0.7 0.52,1.05 0.02,0.04 0.04,0.09 0.07,0.14 0.15,0.3 0.29,0.59 0.45,0.89 a 1.7462,1.7462 0 0 0 0.1,0.19 c 0.17,0.34 0.35,0.69 0.53,1.03 0.2,0.36005 0.39,0.73 0.59,1.09 0.48,0.89 0.98,1.77 1.49,2.65 0.15,0.26 0.3,0.52 0.46,0.78 0.14,0.24 0.28,0.48 0.43,0.72 0.1,0.16 0.2,0.33 0.3,0.49 0.16,0.27 0.32,0.53 0.49,0.8 0.37,0.59 0.75,1.18 1.12,1.77 h 0.01 c 0.17,0.27 0.35,0.54 0.53,0.8 v 0.01 c 0.53,0.8 1.08,1.6 1.63,2.38995 a 0.0098,0.0098 0 0 1 0.01,0.01 c 0.44,0.64 0.9,1.26 1.35,1.88 v 0.01 c 0.3,0.39 0.59,0.79 0.89,1.18 0.24,0.32 0.49,0.65 0.74,0.97 0.05,0.0699 0.11,0.12994 0.16,0.2 v 0.01 c 0.07,0.09 0.14,0.17 0.21,0.26 q 1.59,2.04 3.28,3.99 l 0.18,0.21 c 0.06,0.07 0.13,0.14 0.19,0.22 0.1,0.11005 0.19,0.22 0.29,0.33 0.09,0.11 0.19,0.22 0.29,0.33 a 108.617,108.617 0 0 0 19.83,17.49 c 0.97,0.67 1.96,1.32 2.95,1.95 0.25,0.16 0.5,0.32 0.75,0.47 0.07,0.05 0.15,0.1 0.22,0.15 0.14,0.08 0.27,0.16 0.41,0.25 0.13,0.08 0.26,0.16 0.4,0.24 0.53,0.33 1.07,0.65 1.61,0.97 0.13,0.08 0.27,0.16 0.41,0.24006 0.13,0.0699 0.27,0.15 0.41,0.23 0,0.01 0,0.01 0.01,0.01 h 0.01 v 0.01 h 0.01 q 1.00506,0.58492 2.04,1.13995 c 0.37,0.2 0.75,0.41 1.13,0.6 0.86,0.47 1.73,0.92 2.6,1.35 0.31,0.15 0.63,0.3 0.94,0.46 0.26,0.12 0.52,0.25 0.78,0.37 0.08,0.04 0.15,0.07 0.22,0.11 0.22,0.1 0.43,0.2 0.65,0.3 0.24,0.11005 0.48,0.22 0.71,0.33 0.27,0.12 0.53,0.24 0.8,0.35 1,0.45 2.01,0.88 3.02,1.29 a 105.87419,105.87419 0 0 0 11.08,3.84 c 0.17,0.05 0.35,0.1 0.53,0.15 q 2.41508,0.675 4.86005,1.23 4.275,0.99006 8.63,1.62 h 0.02 c 0.35,0.05 0.69,0.1 1.04,0.15 0.03,0 0.06,0.01 0.1,0.01 0,0.01 0,0.01 0.01,0 0.38,0.05 0.77,0.1 1.15,0.15 a 0.24843,0.24843 0 0 0 0.08,0.01 c 0.36,0.05 0.73,0.09 1.09,0.13 q 0.58494,0.06 1.17,0.12 0.45,0.045 0.9,0.09 a 0.19454,0.19454 0 0 0 0.08,0.01 c 0.27,0.02 0.54,0.05 0.81,0.07 h 0.04 c 0.23,0.02 0.47,0.04 0.7,0.0601 2.79,0.22 5.59,0.31994 8.43,0.31994 3.07,0 6.12,-0.12 9.13,-0.38 h 0.03 c 0.65,-0.06 1.29,-0.12 1.93,-0.18 0.17,-0.02 0.33,-0.03 0.5,-0.05 0.03,0 0.07,-0.01 0.1,-0.01 0.05,-0.01 0.1,-0.01 0.16,-0.02 a 0.24843,0.24843 0 0 0 0.08,-0.01 c 0.22,-0.02 0.44,-0.05 0.67,-0.07 l 0.75,-0.09 c 0.25,-0.03 0.5,-0.07 0.75,-0.1 0.06,-0.01 0.11,-0.01 0.17,-0.02 0.18,-0.02 0.36,-0.05 0.54,-0.08 0.09,-0.01 0.18,-0.02 0.26,-0.03 0.18,-0.03 0.35,-0.05 0.53,-0.08 h 0.01 a 105.706,105.706 0 0 0 16.2,-3.65 c 0.28,-0.09 0.56,-0.17005 0.84,-0.26 0.01,0 0.02,-0.01 0.03,-0.01 0.08,-0.03 0.17,-0.05 0.25,-0.08 0.75,-0.24 1.49,-0.49 2.23,-0.75 1.02,-0.34 2.03,-0.71 3.04,-1.09 0.27,-0.11 0.54,-0.21 0.81,-0.32 0.55,-0.21 1.09,-0.43 1.63,-0.65 0.92,-0.37 1.84,-0.76 2.75,-1.16 0.85,-0.38 1.69,-0.76 2.53,-1.16 0.02,-0.01 0.05,-0.01 0.07,-0.03 0.19,-0.09 0.38,-0.18 0.56,-0.27 h 0.01 a 107.18912,107.18912 0 0 0 13.29,-7.59 q 2.04,-1.365 4.02,-2.82 c 1.06,-0.79 2.1,-1.59 3.14,-2.41 a 108.28427,108.28427 0 0 0 14.19,-13.56 v -0.01 c 0.31,-0.34 0.6,-0.69 0.9,-1.04 0.05,-0.05 0.09,-0.1 0.13,-0.14 0.19,-0.23 0.37,-0.45 0.56,-0.67 v -0.01 c 0.25,-0.29 0.5,-0.59 0.74,-0.89 0.06,-0.0699 0.11,-0.12994 0.16,-0.19 v -0.01 c 0.2,-0.24 0.38995,-0.48 0.59,-0.73 0.1,-0.12 0.19,-0.24 0.29,-0.36 v -0.01 c 0.59,-0.74 1.16,-1.48 1.73,-2.24 0.15,-0.2 0.3,-0.41 0.46,-0.62 0.72,-0.97 1.42,-1.96 2.1,-2.95 v -0.01 c 0.26,-0.37 0.51,-0.75 0.77,-1.12 q 0.375,-0.57 0.75,-1.13995 c 0.25,-0.4 0.51,-0.79 0.76,-1.19 l 0.03,-0.06 c 0.25,-0.38 0.5,-0.78 0.74,-1.17005 0.19,-0.32 0.38,-0.63 0.57,-0.94 0.12,-0.21 0.25,-0.42 0.37,-0.63995 a 2.3919,2.3919 0 0 0 0.13,-0.21 q 0.42,-0.735 0.84,-1.47 c 0.33,-0.56994 0.65,-1.15 0.97,-1.73 0.12,-0.24 0.25,-0.48 0.38,-0.72 0.05,-0.08 0.09,-0.16 0.13,-0.24 0.15,-0.28 0.3,-0.56994 0.44,-0.86 0.15,-0.28 0.3,-0.57 0.45,-0.86 0.13995,-0.28 0.29,-0.57 0.43,-0.86 0.11,-0.22 0.21,-0.44 0.32,-0.66 a 0.2175,0.2175 0 0 1 0.03,-0.05 c 0.05,-0.11 0.1,-0.21 0.14,-0.31 a 0.21619,0.21619 0 0 0 0.03,-0.05 c 0.11005,-0.22 0.21,-0.45 0.32,-0.67 0.14,-0.29 0.27,-0.59 0.41,-0.88 0.09,-0.2 0.19,-0.41 0.28,-0.62 0.13,-0.29 0.27,-0.58 0.39,-0.88 0.14,-0.3 0.27,-0.6 0.4,-0.91 a 2.29962,2.29962 0 0 0 0.1,-0.23 c 0.07,-0.14 0.12,-0.28 0.18,-0.42 0.16,-0.37 0.32,-0.75 0.47,-1.12 0.18,-0.42005 0.35,-0.85 0.51,-1.27 0.16,-0.39 0.31,-0.79 0.46,-1.19 l 0.06,-0.14 a 108.31693,108.31693 0 0 0 5.28,-18.93 v -0.01 a 109.43156,109.43156 0 0 0 1.43,-11.14 c 0.01,-0.21 0.03,-0.41 0.04,-0.61 0.18,-2.53 0.26,-5.07 0.26,-7.62 0,-1.13 -0.02,-2.25 -0.05,-3.37 a 107.22221,107.22221 0 0 0 -23.78,-64.2 c -0.32,-0.4 -0.64,-0.8 -0.97,-1.2 -0.33,-0.4 -0.67,-0.79 -1,-1.18 a 107.74949,107.74949 0 0 0 -173.04,12.43 c -0.49,0.78 -0.98,1.57 -1.45,2.36005 -0.48,0.8 -0.94,1.6 -1.4,2.41 a 107.27619,107.27619 0 0 0 -13.78005,52.74989 z"
     fill="#f2f2f2"
     id="path124" />
  <path
     d="m 186.28336,66.67927 a 254.162,254.162 0 0 0 54.14823,7.81528 67.79984,67.79984 0 0 0 8.29619,-0.0564 c 6.069,-0.51045 11.26756,-2.41793 17.05716,-3.46033 2.78331,-0.4997 5.88364,-0.86509 8.68575,-1.40509 q -0.9712,-1.20494 -1.97732,-2.38032 c -6.04216,0.51046 -12.17832,2.18151 -18.293,2.95794 -10.39442,1.3218 -22.04079,-0.15314 -29.92056,-3.79078 -3.823,-1.76509 -6.75141,-3.96809 -10.561,-5.74124 a 4.9219,4.9219 0 0 0 -1.65762,-0.50777 5.76807,5.76807 0 0 0 -3.1272,0.81136 c -6.39139,3.22658 -15.67088,5.84869 -24.28409,4.406 -0.64209,0.50239 0.57763,1.07463 1.63346,1.35136 z"
     fill="#ffffff"
     id="path126" />
  <path
     d="m 148.16865,78.03417 c -0.0787,-0.0144 -0.15753,-0.0256 -0.23624,-0.0392 a 6.42127,6.42127 0 0 0 0.93083,-0.7013 z"
     fill="#ffffff"
     id="path128" />
  <path
     d="m 96.60764,84.40001 q 5.396,0.4312 10.84845,0.6421 a 68.3417,68.3417 0 0 0 8.2962,-0.0564 c 6.069,-0.51315 11.26756,-2.41793 17.05716,-3.46033 5.306,-0.95375 11.75383,-1.41315 15.12283,-3.53018 -8.70725,-1.50718 -17.72881,1.56091 -26.70741,2.70271 A 63.77318,63.77318 0 0 1 99.46081,79.62327 q -1.49106,2.3454 -2.85317,4.77675 z"
     fill="#ffffff"
     id="path130" />
  <path
     d="m 140.12551,232.35565 c 0.86,0.47 1.73,0.92 2.6,1.35 0.31,0.15 0.63,0.3 0.94,0.46 0.26,0.12 0.52,0.25 0.78,0.37 0.08,0.04 0.15,0.07 0.22,0.11 0.22,0.1 0.43,0.2 0.65,0.3 0.24,0.11005 0.48,0.22 0.71,0.33 0.27,0.12 0.53,0.24 0.8,0.35 1,0.45 2.01,0.88 3.02,1.29 a 105.87419,105.87419 0 0 0 11.08,3.84 c 0.17,0.05 0.35,0.1 0.53,0.15 q 2.41508,0.675 4.86005,1.23 4.275,0.99006 8.63,1.62 h 0.02 c 0.35,0.05 0.69,0.1 1.04,0.15 0.03,0 0.06,0.01 0.1,0.01 0,0.01 0,0.01 0.01,0 0.38,0.05 0.77,0.1 1.15,0.15 a 0.24843,0.24843 0 0 0 0.08,0.01 c 0.36,0.05 0.73,0.09 1.09,0.13 q 0.58494,0.06 1.17,0.12 0.45,0.045 0.9,0.09 a 0.19454,0.19454 0 0 0 0.08,0.01 c 0.27,0.02 0.54,0.05 0.81,0.07 h 0.04 c 0.23,0.02 0.47,0.04 0.7,0.0601 2.79,0.22 5.59,0.31994 8.43,0.31994 3.07,0 6.12,-0.12 9.13,-0.38 h 0.03 c 0.65,-0.06 1.29,-0.12 1.93,-0.18 0.17,-0.02 0.33,-0.03 0.5,-0.05 0.03,0 0.07,-0.01 0.1,-0.01 0.05,-0.01 0.1,-0.01 0.16,-0.02 a 0.24843,0.24843 0 0 0 0.08,-0.01 c 0.22,-0.02 0.44,-0.05 0.67,-0.07 l 0.75,-0.09 c 0.25,-0.03 0.5,-0.07 0.75,-0.1 0.06,-0.01 0.11,-0.01 0.17,-0.02 0.18,-0.02 0.36,-0.05 0.54,-0.0799 0.09,-0.01 0.18,-0.02 0.26,-0.03 0.18,-0.03 0.35,-0.05 0.53,-0.08 h 0.01 a 105.706,105.706 0 0 0 16.2,-3.65 c 0.28,-0.09 0.56,-0.17005 0.84,-0.26 a 40.177,40.177 0 0 0 -22.03,-27.86 9.49736,9.49736 0 0 0 2.73,-4.86005 9.29434,9.29434 0 0 0 -1.28,-7.01995 8.9678,8.9678 0 0 0 -5.66,-3.88 l -14.82,-3.1 a 9.2231,9.2231 0 0 0 -10.8,7.2 9.76284,9.76284 0 0 0 -0.2,2.22 c -14.27004,9.49995 -24.54006,19.34992 -31.03005,29.80995 z"
     fill="#6c63ff"
     id="path132"
     style="fill:#559df2;fill-opacity:1" />
  <circle
     cx="198.75404"
     cy="147.04877"
     r="36.073158"
     fill="#9e616a"
     id="circle134" />
  <path
     d="m 193.62791,181.1938 c -9.03088,2.43906 -18.98715,-0.80368 -26.03488,-6.95474 -7.04773,-6.15106 -11.45636,-14.86707 -13.99658,-23.87 -1.86041,-6.59356 -2.74253,-13.91271 0.1933,-20.10281 2.93583,-6.1901 10.83712,-10.36639 16.933,-7.23959 -3.7605,-4.38129 -1.88181,-11.62772 2.51016,-15.37573 4.39197,-3.74801 10.42282,-4.82261 16.16669,-5.41 8.33594,-0.85248 16.9465,-0.9479 24.87878,1.75269 7.93228,2.70059 15.13953,8.60486 17.62207,16.60809 a 12.64027,12.64027 0 0 0 15.07663,-3.404 11.45182,11.45182 0 0 1 -6.30975,12.41714 l 12.15372,-3.94033 c 2.09021,4.42428 -1.57233,9.9 -6.25589,11.31683 -4.68356,1.41683 -9.73932,-0.13181 -14.18381,-2.17871 -4.44449,-2.0469 -8.75159,-4.63474 -13.57922,-5.433 -4.82763,-0.79826 -10.49836,0.7529 -12.73139,5.10685 -1.16958,2.28042 -1.23059,4.95123 -1.90964,7.42248 -0.67905,2.47125 -2.3992,5.03348 -4.9541,5.23572 -1.61416,0.12778 -3.19455,-0.732 -4.8042,-0.55621 a 5.17666,5.17666 0 0 0 -4.05441,3.96139 15.1987,15.1987 0 0 0 -0.0144,5.98 l 3.08725,23.598 z"
     fill="#2f2e41"
     id="path136" />
</svg>
