<?xml version="1.0" encoding="UTF-8" standalone="no"?>
<!-- Generator: Adobe Illustrator 18.1.1, SVG Export Plug-In . SVG Version: 6.00 Build 0)  -->

<svg

   version="1.1"
   id="Capa_1"
   x="0px"
   y="0px"
   viewBox="0 0 167.657 167.657"
   style="enable-background:new 0 0 167.657 167.657;"
   xml:space="preserve"
  
   ><defs
   id="defs39" /><sodipodi:namedview
   pagecolor="#ffffff"
   bordercolor="#666666"
   borderopacity="1"
   objecttolerance="10"
   gridtolerance="10"
   guidetolerance="10"
 
   id="namedview37"
   showgrid="false"
  
   />
<g
   id="g4"
   style="fill:#3b5998;fill-opacity:1">
	<path
   style="fill:#3b5998;fill-opacity:1"
   d="M83.829,0.349C37.532,0.349,0,37.881,0,84.178c0,41.523,30.222,75.911,69.848,82.57v-65.081H49.626   v-23.42h20.222V60.978c0-20.037,12.238-30.956,30.115-30.956c8.562,0,15.92,0.638,18.056,0.919v20.944l-12.399,0.006   c-9.72,0-11.594,4.618-11.594,11.397v14.947h23.193l-3.025,23.42H94.026v65.653c41.476-5.048,73.631-40.312,73.631-83.154   C167.657,37.881,130.125,0.349,83.829,0.349z"
   id="path2" />
</g>
<g
   id="g6">
</g>
<g
   id="g8">
</g>
<g
   id="g10">
</g>
<g
   id="g12">
</g>
<g
   id="g14">
</g>
<g
   id="g16">
</g>
<g
   id="g18">
</g>
<g
   id="g20">
</g>
<g
   id="g22">
</g>
<g
   id="g24">
</g>
<g
   id="g26">
</g>
<g
   id="g28">
</g>
<g
   id="g30">
</g>
<g
   id="g32">
</g>
<g
   id="g34">
</g>
</svg>