<?xml version="1.0" encoding="UTF-8" standalone="no"?> <svg width="64" height="64" viewBox="0 0 64 64" fill="none" xmlns="http://www.w3.org/2000/svg">
<path d="M57.56 17.37H44.56C45.4562 16.5824 46.1692 15.6083 46.6491 14.516C47.1289 13.4236 47.3641 12.2396 47.338 11.0468C47.3119 9.85401 47.0251 8.68136 46.4979 7.6111C45.9707 6.54083 45.2158 5.59884 44.286 4.85119C43.3562 4.10354 42.2742 3.56832 41.1157 3.28306C39.9573 2.9978 38.7504 2.9694 37.5798 3.19987C36.4092 3.43033 35.3032 3.91407 34.3393 4.61718C33.3754 5.32028 32.577 6.22572 32 7.27001C31.4277 6.2168 30.6308 5.30225 29.6659 4.59107C28.701 3.8799 27.5916 3.38948 26.4161 3.15453C25.2407 2.91957 24.028 2.94582 22.8638 3.23142C21.6997 3.51701 20.6125 4.05497 19.6792 4.80723C18.746 5.55949 17.9895 6.50766 17.4632 7.58465C16.937 8.66164 16.6539 9.84113 16.6339 11.0396C16.6139 12.2382 16.8576 13.4264 17.3477 14.5203C17.8378 15.6143 18.5623 16.5871 19.47 17.37H6.47002C6.06687 17.37 5.66766 17.4494 5.29519 17.6037C4.92272 17.758 4.58428 17.9841 4.29921 18.2692C4.01413 18.5543 3.788 18.8927 3.63371 19.2652C3.47943 19.6376 3.40002 20.0369 3.40002 20.44V26.44C3.40266 27.2534 3.72695 28.0327 4.30212 28.6079C4.87729 29.1831 5.65662 29.5074 6.47002 29.51H7.47002V57.93C7.47002 58.334 7.54976 58.734 7.70467 59.1072C7.85957 59.4803 8.0866 59.8192 8.37274 60.1044C8.65888 60.3896 8.99849 60.6155 9.37211 60.7692C9.74574 60.9229 10.146 61.0013 10.55 61H53.45C54.2642 61 55.0451 60.6766 55.6208 60.1008C56.1966 59.5251 56.52 58.7442 56.52 57.93V29.48H57.52C58.3334 29.4774 59.1128 29.1531 59.6879 28.5779C60.2631 28.0027 60.5874 27.2234 60.59 26.41V20.41C60.5823 19.6079 60.2608 18.8407 59.6946 18.2725C59.1283 17.7044 58.3621 17.3804 57.56 17.37V17.37ZM39.18 5.00001C40.0132 4.9665 40.8445 5.10167 41.6241 5.39739C42.4037 5.69312 43.1156 6.1433 43.7169 6.72094C44.3182 7.29857 44.7967 7.99174 45.1235 8.75885C45.4503 9.52596 45.6188 10.3512 45.6188 11.185C45.6188 12.0188 45.4503 12.8441 45.1235 13.6112C44.7967 14.3783 44.3182 15.0714 43.7169 15.6491C43.1156 16.2267 42.4037 16.6769 41.6241 16.9726C40.8445 17.2684 40.0132 17.4035 39.18 17.37H33V11.18C33 10.3684 33.1599 9.56482 33.4704 8.81502C33.781 8.06523 34.2362 7.38395 34.8101 6.81009C35.384 6.23622 36.0652 5.78101 36.815 5.47043C37.5648 5.15986 38.3685 5.00001 39.18 5.00001V5.00001ZM18.63 11.18C18.6943 9.58268 19.374 8.07214 20.5269 6.96469C21.6798 5.85723 23.2164 5.23875 24.815 5.23875C26.4136 5.23875 27.9503 5.85723 29.1032 6.96469C30.2561 8.07214 30.9358 9.58268 31 11.18V17.37H24.82C23.1791 17.3674 21.6062 16.7144 20.446 15.5541C19.2857 14.3938 18.6327 12.8209 18.63 11.18V11.18ZM54.52 57.93C54.52 58.2138 54.4073 58.4859 54.2066 58.6866C54.006 58.8873 53.7338 59 53.45 59H10.55C10.2662 59 9.99408 58.8873 9.79342 58.6866C9.59276 58.4859 9.48002 58.2138 9.48002 57.93V29.48H54.48L54.52 57.93ZM58.63 26.41C58.63 26.6938 58.5173 26.9659 58.3166 27.1666C58.116 27.3673 57.8438 27.48 57.56 27.48H6.44002C6.15624 27.48 5.88408 27.3673 5.68342 27.1666C5.48276 26.9659 5.37002 26.6938 5.37002 26.41V20.41C5.37002 20.1262 5.48276 19.8541 5.68342 19.6534C5.88408 19.4527 6.15624 19.34 6.44002 19.34H57.56C57.8438 19.34 58.116 19.4527 58.3166 19.6534C58.5173 19.8541 58.63 20.1262 58.63 20.41V26.41Z" fill="black"/>
<path d="M31.29 55.82C31.383 55.9137 31.4936 55.9881 31.6155 56.0389C31.7373 56.0897 31.868 56.1158 32 56.1158C32.1321 56.1158 32.2628 56.0897 32.3846 56.0389C32.5065 55.9881 32.6171 55.9137 32.71 55.82L42.51 46.02C43.1767 45.3947 43.7108 44.6418 44.0807 43.8061C44.4507 42.9703 44.6488 42.0687 44.6634 41.1548C44.6781 40.241 44.5088 39.3335 44.1658 38.4863C43.8228 37.6391 43.3131 36.8696 42.6668 36.2233C42.0205 35.577 41.2509 35.0672 40.4037 34.7242C39.5566 34.3812 38.6491 34.212 37.7352 34.2266C36.8214 34.2412 35.9197 34.4394 35.084 34.8093C34.2482 35.1792 33.4953 35.7134 32.87 36.38V36.38C32.6345 36.6015 32.3234 36.7248 32 36.7248C31.6767 36.7248 31.3656 36.6015 31.13 36.38C29.832 35.2166 28.1378 34.5943 26.3953 34.641C24.6529 34.6877 22.9944 35.3998 21.7605 36.631C20.5267 37.8623 19.8111 39.5193 19.7608 41.2617C19.7105 43.0041 20.3293 44.6996 21.49 46L31.29 55.82ZM22.9 37.82C23.8037 36.9181 25.0283 36.4115 26.305 36.4115C27.5818 36.4115 28.8064 36.9181 29.71 37.82C30.3257 38.4075 31.144 38.7353 31.995 38.7353C32.846 38.7353 33.6643 38.4075 34.28 37.82C34.7125 37.3198 35.2432 36.914 35.8392 36.6277C36.4352 36.3414 37.0837 36.1808 37.7444 36.1559C38.4052 36.131 39.064 36.2422 39.6798 36.4828C40.2957 36.7233 40.8555 37.088 41.3244 37.5542C41.7933 38.0204 42.1613 38.578 42.4055 39.1924C42.6497 39.8069 42.7648 40.465 42.7438 41.1259C42.7227 41.7867 42.5659 42.4362 42.2831 43.0339C42.0004 43.6315 41.5977 44.1646 41.1 44.6L32 53.7L22.9 44.6C22.0005 43.6951 21.4957 42.471 21.4957 41.195C21.4957 39.9191 22.0005 38.695 22.9 37.79V37.82Z" fill="black"/>
</svg>
