<?xml version="1.0" encoding="UTF-8"?>
<svg class="" width="512px" height="512px" version="1.1" viewBox="0 -53 384 384" xmlns="http://www.w3.org/2000/svg">
 <g transform="matrix(.74127 0 0 .92062 51.37 8.4676)" fill="#a0aec0" stroke-width=".77304">
  <path class="active-path" d="m368.76 146.39h-352c-8.832 0-16-4.2835-16-9.5615 0-5.278 7.168-9.5615 16-9.5615h352c8.832 0 16 4.2835 16 9.5615 0 5.278-7.168 9.5615-16 9.5615z" data-old_color="#000000" data-original="#000000"/>
  <path class="active-path" d="m368.76 52.235h-352c-8.832 0-16-4.2835-16-9.5615 0-5.278 7.168-9.5615 16-9.5615h352c8.832 0 16 4.2835 16 9.5615 0 5.278-7.168 9.5615-16 9.5615z" data-old_color="#000000" data-original="#000000"/>
  <path class="active-path" d="m368.76 240.54h-352c-8.832 0-16-4.2835-16-9.5615 0-5.278 7.168-9.5615 16-9.5615h352c8.832 0 16 4.2835 16 9.5615 0 5.278-7.168 9.5615-16 9.5615z" data-old_color="#000000" data-original="#000000"/>
 </g>
</svg>
