

<svg
  
   version="1.1"
   id="Capa_1"
   x="0px"
   y="0px"
   viewBox="0 0 512 512"
   style="enable-background:new 0 0 512 512;"
   xml:space="preserve"
   
   >   
<path
   style="fill:#5f8ddf;fill-opacity:1;stroke-width:0.82203388"
   d="M 411.66102,77.619983 H 96 c -29.014508,0 -52.610169,23.595667 -52.610169,52.610167 v 236.74577 c 0,29.0145 23.595661,52.61017 52.610169,52.61017 h 26.30508 v 65.76271 c 0,5.10318 2.94617,9.75918 7.57587,11.9162 1.76244,0.81546 3.68271,1.23634 5.57668,1.23634 3.02508,0 6.02386,-1.0522 8.41762,-3.05139 l 91.0419,-75.86386 h 176.74387 c 29.0145,0 52.61017,-23.59567 52.61017,-52.61017 V 130.23015 c 0,-29.0145 -23.59567,-52.610167 -52.61017,-52.610167 z"
   id="path2"
    />
<g
   id="g4">
</g>
<g
   id="g6">
</g>
<g
   id="g8">
</g>
<g
   id="g10">
</g>
<g
   id="g12">
</g>
<g
   id="g14">
</g>
<g
   id="g16">
</g>
<g
   id="g18">
</g>
<g
   id="g20">
</g>
<g
   id="g22">
</g>
<g
   id="g24">
</g>
<g
   id="g26">
</g>
<g
   id="g28">
</g>
<g
   id="g30">
</g>
<g
   id="g32">
</g>
<path
   style="fill:#4f76ba;fill-opacity:1;stroke-width:0.82203388"
   d="M 411.66102,77.619982 H 96 c 172.60955,37.486288 335.91071,51.254248 315.66102,341.966108 29.0145,0 52.61017,-23.59567 52.61017,-52.61017 V 130.23015 c 0,-29.0145 -23.59567,-52.610168 -52.61017,-52.610168 z"
   id="path2-5"
    /><path
   style="fill:#4f76ba;fill-opacity:1;stroke:none;stroke-width:1px;stroke-linecap:butt;stroke-linejoin:miter;stroke-opacity:1"
   d="m 234.91715,419.58609 c 0,0 -96.72197,60.72668 -101.14139,71.77522 -4.41941,11.04855 10.12047,3.97749 10.12047,3.97749 z"
   id="path4580"
  
   /></svg>