<?xml version="1.0" encoding="UTF-8" standalone="no"?>
<!-- Generator: Adobe Illustrator 19.0.0, SVG Export Plug-In . SVG Version: 6.00 Build 0)  -->

<svg
   xmlns:dc="http://purl.org/dc/elements/1.1/"
   xmlns:cc="http://creativecommons.org/ns#"
   xmlns:rdf="http://www.w3.org/1999/02/22-rdf-syntax-ns#"
   xmlns:svg="http://www.w3.org/2000/svg"
   xmlns="http://www.w3.org/2000/svg"
   xmlns:sodipodi="http://sodipodi.sourceforge.net/DTD/sodipodi-0.dtd"
   xmlns:inkscape="http://www.inkscape.org/namespaces/inkscape"
   version="1.1"
   id="Capa_1"
   x="0px"
   y="0px"
   viewBox="0 0 512 512"
   style="enable-background:new 0 0 512 512;"
   xml:space="preserve"
   sodipodi:docname="message.svg"
   inkscape:version="0.92.4 (5da689c313, 2019-01-14)"><metadata
   id="metadata39"><rdf:RDF><cc:Work
       rdf:about=""><dc:format>image/svg+xml</dc:format><dc:type
         rdf:resource="http://purl.org/dc/dcmitype/StillImage" /></cc:Work></rdf:RDF></metadata><defs
   id="defs37" /><sodipodi:namedview
   pagecolor="#ffffff"
   bordercolor="#666666"
   borderopacity="1"
   objecttolerance="10"
   gridtolerance="10"
   guidetolerance="10"
   inkscape:pageopacity="0"
   inkscape:pageshadow="2"
   inkscape:window-width="1920"
   inkscape:window-height="1051"
   id="namedview35"
   showgrid="false"
   inkscape:zoom="0.70710678"
   inkscape:cx="100.05111"
   inkscape:cy="177.08301"
   inkscape:window-x="-9"
   inkscape:window-y="-9"
   inkscape:window-maximized="1"
   inkscape:current-layer="Capa_1" />
<path
   style="fill:#5f8ddf;fill-opacity:1;stroke-width:0.82203388"
   d="M 411.66102,77.619983 H 96 c -29.014508,0 -52.610169,23.595667 -52.610169,52.610167 v 236.74577 c 0,29.0145 23.595661,52.61017 52.610169,52.61017 h 26.30508 v 65.76271 c 0,5.10318 2.94617,9.75918 7.57587,11.9162 1.76244,0.81546 3.68271,1.23634 5.57668,1.23634 3.02508,0 6.02386,-1.0522 8.41762,-3.05139 l 91.0419,-75.86386 h 176.74387 c 29.0145,0 52.61017,-23.59567 52.61017,-52.61017 V 130.23015 c 0,-29.0145 -23.59567,-52.610167 -52.61017,-52.610167 z"
   id="path2"
   inkscape:connector-curvature="0" />
<g
   id="g4">
</g>
<g
   id="g6">
</g>
<g
   id="g8">
</g>
<g
   id="g10">
</g>
<g
   id="g12">
</g>
<g
   id="g14">
</g>
<g
   id="g16">
</g>
<g
   id="g18">
</g>
<g
   id="g20">
</g>
<g
   id="g22">
</g>
<g
   id="g24">
</g>
<g
   id="g26">
</g>
<g
   id="g28">
</g>
<g
   id="g30">
</g>
<g
   id="g32">
</g>
<path
   style="fill:#4f76ba;fill-opacity:1;stroke-width:0.82203388"
   d="M 411.66102,77.619982 H 96 c 172.60955,37.486288 335.91071,51.254248 315.66102,341.966108 29.0145,0 52.61017,-23.59567 52.61017,-52.61017 V 130.23015 c 0,-29.0145 -23.59567,-52.610168 -52.61017,-52.610168 z"
   id="path2-5"
   inkscape:connector-curvature="0"
   sodipodi:nodetypes="sccsss" /><path
   style="fill:#4f76ba;fill-opacity:1;stroke:none;stroke-width:1px;stroke-linecap:butt;stroke-linejoin:miter;stroke-opacity:1"
   d="m 234.91715,419.58609 c 0,0 -96.72197,60.72668 -101.14139,71.77522 -4.41941,11.04855 10.12047,3.97749 10.12047,3.97749 z"
   id="path4580"
   inkscape:connector-curvature="0"
   sodipodi:nodetypes="cccc" /></svg>