<?xml version="1.0" encoding="UTF-8" standalone="no"?>
<!-- Generator: Adobe Illustrator 23.0.3, SVG Export Plug-In . SVG Version: 6.00 Build 0)  -->

<svg
   version="1.1"
   id="Layer_1"
   x="0px"
   y="0px"
   viewBox="0 0 32 32"
   xml:space="preserve"
   width="32"
   height="32"
  ><defs
   id="defs18261" />

<g
   id="g18256"
   transform="matrix(0.74588742,0,0,0.74588742,-2.250417,-3.6751348)"
   style="fill:#718096;fill-opacity:1;stroke-width:1.00015093;stroke-dasharray:none">
	<g
   id="g18254"
   style="fill:#718096;fill-opacity:1;stroke-width:1.00015093;stroke-dasharray:none">
		<path
   class="st43"
   d="M 36.8,40.9 H 13.2 C 11.4,40.9 9.9,40 9,38.5 8.1,37 8.1,35.2 9,33.6 9,33.5 9.1,33.4 9.2,33.4 l 4.1,-3.9 c 0,-1 -0.1,-3.5 -0.1,-6.8 0,-5.7 3.2,-10.3 6.2,-11.1 0.4,-2.1 2,-5.2 5.6,-5.2 0,0 0,0 0,0 3.6,0 5.1,3.1 5.6,5.2 3.1,0.7 6.2,4.8 6.2,11.1 0,3.3 -0.1,5.8 -0.1,6.8 l 4.1,3.9 c 0.1,0.1 0.1,0.2 0.2,0.2 0.9,1.5 0.8,3.4 0,4.9 -0.9,1.5 -2.5,2.4 -4.2,2.4 z M 10.6,34.7 c -0.4,0.9 -0.4,1.9 0.1,2.8 0.5,0.9 1.5,1.4 2.5,1.4 h 23.6 c 1,0 2,-0.5 2.5,-1.4 0.5,-0.9 0.5,-1.9 0.1,-2.8 L 35,30.6 c -0.2,-0.2 -0.3,-0.5 -0.3,-0.8 0,0 0.1,-3 0.1,-7.2 0,-5.9 -3,-9.2 -5.1,-9.2 -0.5,0 -0.9,-0.4 -1,-0.9 v 0 c 0,-0.2 -0.5,-4.2 -3.7,-4.2 0,0 0,0 0,0 -3.3,0 -3.8,4 -3.8,4.2 0,0.5 -0.5,0.9 -1,0.9 -1.5,0 -5.1,3.5 -5.1,9.2 0,4.2 0.1,7.1 0.1,7.2 0,0.3 -0.1,0.6 -0.3,0.8 z"
   id="path18250"
   style="fill:#718096;fill-opacity:1;stroke-width:1.00015093;stroke-dasharray:none" />
		<path
   class="st43"
   d="m 25.3,47 c -3.6,0 -6.4,-3 -6.5,-3.1 -0.4,-0.4 -0.3,-1 0.1,-1.4 0.4,-0.4 1,-0.3 1.4,0.1 0,0 2.3,2.4 5,2.4 0,0 0.1,0 0.1,0 1.5,0 3,-0.8 4.3,-2.4 0.4,-0.4 1,-0.5 1.4,-0.1 0.4,0.4 0.5,1 0.1,1.4 -1.7,2 -3.7,3.1 -5.8,3.1 -0.1,0 -0.1,0 -0.1,0 z"
   id="path18252"
   style="fill:#718096;fill-opacity:1;stroke-width:1.00015093;stroke-dasharray:none" />
	</g>
</g>
</svg>
