<?xml version="1.0" encoding="UTF-8"?>
<svg width="700pt" height="700pt" version="1.1" viewBox="0 0 700 700" xmlns="http://www.w3.org/2000/svg" xmlns:xlink="http://www.w3.org/1999/xlink">
 
 <g>
  <path d="m519.64 71.844c-6.9883-6.9883-16.324-10.836-26.297-10.836-9.9609 0-19.293 3.8398-26.281 10.836l-22.703 22.703 91.098 91.094 22.695-22.695c6.9883-6.9883 10.836-16.324 10.836-26.281 0-9.9805-3.8398-19.309-10.836-26.297z"/>
  <path d="m131.81 470.3 9.0312 9.0312 0.16406 0.14062 9.5195 9.5195 0.17578 0.19531 8.9961 9 63.488-13.004-78.371-78.371z"/>
  <path d="m153.27 385.63 271.83-271.83 91.094 91.094-271.83 271.83z"/>
  <path d="m597.96 50.523-18.484-18.484c-5.3828-5.3828-14.191-5.3828-19.57 0l-25.219 25.219 38.059 38.059 25.219-25.219c5.3789-5.3828 5.3789-14.191-0.003906-19.574z"/>
  <path d="m252.2 220.89c3.3555 0 6.6914-1.2773 9.2461-3.8242l133.49-133.49 15.395 15.395 19.219-19.242-18.996-18.977c-8.2148-8.2305-21.547-8.2305-29.758 0l-4.3516 4.3359-133.49 133.48c-5.1016 5.1016-5.1016 13.383 0 18.484 2.5547 2.5547 5.8906 3.832 9.2461 3.832z"/>
  <path d="m103.04 502.61c-6.707 6.7266-6.707 17.652 0 24.359 3.2461 3.2539 7.5664 5.0352 12.18 5.0352 4.5977 0 8.9336-1.7812 12.18-5.0352l15.727-15.727-24.359-24.359z"/>
  <use x="70" y="644" xlink:href="#v"/>
  <use x="90.550781" y="644" xlink:href="#c"/>
  <use x="104.359375" y="644" xlink:href="#a"/>
  <use x="123.347656" y="644" xlink:href="#f"/>
  <use x="142.242188" y="644" xlink:href="#b"/>
  <use x="155.628906" y="644" xlink:href="#a"/>
  <use x="174.617188" y="644" xlink:href="#k"/>
  <use x="204.410156" y="644" xlink:href="#j"/>
  <use x="224.453125" y="644" xlink:href="#i"/>
  <use x="252.453125" y="644" xlink:href="#h"/>
  <use x="262.867188" y="644" xlink:href="#f"/>
  <use x="281.765625" y="644" xlink:href="#e"/>
  <use x="310.9375" y="644" xlink:href="#a"/>
  <use x="329.929688" y="644" xlink:href="#u"/>
  <use x="356.34375" y="644" xlink:href="#t"/>
  <use x="376.507812" y="644" xlink:href="#e"/>
  <use x="405.6875" y="644" xlink:href="#s"/>
  <use x="415.28125" y="644" xlink:href="#b"/>
  <use x="428.667969" y="644" xlink:href="#g"/>
  <use x="70" y="672" xlink:href="#r"/>
  <use x="82.183594" y="672" xlink:href="#c"/>
  <use x="95.992188" y="672" xlink:href="#d"/>
  <use x="115.226562" y="672" xlink:href="#e"/>
  <use x="154.152344" y="672" xlink:href="#b"/>
  <use x="167.535156" y="672" xlink:href="#g"/>
  <use x="187.46875" y="672" xlink:href="#a"/>
  <use x="216.207031" y="672" xlink:href="#q"/>
  <use x="239.640625" y="672" xlink:href="#d"/>
  <use x="258.878906" y="672" xlink:href="#p"/>
  <use x="278.8125" y="672" xlink:href="#o"/>
  <use x="308.492188" y="672" xlink:href="#n"/>
  <use x="329.015625" y="672" xlink:href="#c"/>
  <use x="342.820312" y="672" xlink:href="#d"/>
  <use x="362.058594" y="672" xlink:href="#m"/>
  <use x="371.65625" y="672" xlink:href="#a"/>
  <use x="390.648438" y="672" xlink:href="#l"/>
  <use x="407.242188" y="672" xlink:href="#b"/>
 </g>
</svg>
