<svg width="512" height="512" enable-background="new 0 0 512.07 512.07" version="1.1" viewBox="0 0 512.07 512.07" xmlns="http://www.w3.org/2000/svg">
 <g style="fill:#f0c83f">
  <path d="m509.76 194.64c-6.152-18.858-22.945-31.043-42.781-31.043h-127.92l-40.282-122.33c-6.192-18.805-22.95-30.926-42.729-30.926-.063 0-.128 0-.191.001-19.86.078-36.611 12.349-42.674 31.262l-39.108 121.99h-128.98c-19.886 0-36.692 12.226-42.814 31.146-6.123 18.92.335 38.674 16.453 50.324l104.36 75.434-40.17 121.99c-6.217 18.88.133 38.662 16.177 50.396 8.058 5.894 17.307 8.842 26.562 8.842 9.171-.001 18.347-2.897 26.365-8.693l104.54-75.563 103.3 75.436c16.026 11.704 36.781 11.76 52.873.147s22.575-31.328 16.518-50.227l-39.218-122.33 103.47-75.563c16.02-11.698 22.396-31.441 16.243-50.298z" style="fill:#f0c83f"/>
 </g>
</svg>
